<?xml version="1.0" encoding="utf-8"?>
<!-- Generator: Adobe Illustrator 28.0.0, SVG Export Plug-In . SVG Version: 6.00 Build 0)  -->
<svg version="1.1" id="Layer_1" xmlns="http://www.w3.org/2000/svg" xmlns:xlink="http://www.w3.org/1999/xlink" x="0px" y="0px"
	 viewBox="0 0 1080 1080" style="enable-background:new 0 0 1080 1080;" xml:space="preserve">
<style type="text/css">
	.st0{display:none;}
	.st1{display:inline;}
	.st2{fill:#FFFFFF;}
	.st3{fill:none;stroke:#FFFFFF;stroke-width:6;stroke-miterlimit:10;}
	.st4{fill:#9A0B0B;}
</style>
<g class="st0">
	<g class="st1">
		<g>
			<g>
				<path class="st2" d="M1640.16-1546.6c1.73,0,3.5,0.26,5.31,0.78v3.29c-1.61-1.41-3.37-2.11-5.28-2.11
					c-2.08,0-3.69,0.89-4.82,2.68c-1.13,1.79-1.69,4.05-1.69,6.8c0,2.76,0.56,5.03,1.69,6.81c1.13,1.78,2.73,2.67,4.82,2.67
					c1.89,0,3.65-0.71,5.28-2.12v3.32c-1.81,0.49-3.58,0.73-5.31,0.73c-3.31,0-5.99-1.09-8.04-3.27s-3.07-4.89-3.07-8.14
					c0-3.23,1.03-5.95,3.1-8.14S1636.88-1546.6,1640.16-1546.6z"/>
				<path class="st2" d="M1671.45-1543.26c2.04,2.21,3.07,4.89,3.07,8.03s-1.02,5.83-3.07,8.06c-2.05,2.23-4.52,3.35-7.42,3.35
					c-2.9,0-5.37-1.12-7.41-3.35s-3.07-4.92-3.07-8.06s1.02-5.82,3.07-8.04s4.51-3.32,7.41-3.32
					C1666.92-1546.59,1669.39-1545.48,1671.45-1543.26z M1659.9-1541.81c-1.13,1.82-1.69,4.01-1.69,6.59c0,2.58,0.56,4.79,1.69,6.62
					c1.13,1.83,2.51,2.74,4.13,2.74c1.62,0,2.99-0.91,4.13-2.74c1.14-1.83,1.71-4.03,1.71-6.62c0-2.57-0.57-4.77-1.71-6.59
					s-2.52-2.73-4.13-2.73C1662.41-1544.54,1661.03-1543.63,1659.9-1541.81z"/>
				<path class="st2" d="M1683.2-1546.29h13.6l0.21,2.71c-0.61-0.65-1.99-0.98-4.15-0.98h-5.66v7.55h6.6l0.21,2.71
					c-0.61-0.65-1.99-0.98-4.15-0.98h-2.67v11.16h-4.01V-1546.29z"/>
				<path class="st2" d="M1705.4-1546.29h13.6l0.21,2.71c-0.61-0.65-1.99-0.98-4.15-0.98h-5.66v7.55h6.6l0.21,2.71
					c-0.61-0.65-1.99-0.98-4.15-0.98h-2.67v11.16h-4.01V-1546.29z"/>
				<path class="st2" d="M1727.6-1546.29h13.16l0.21,2.71c-0.61-0.65-1.99-0.98-4.15-0.98h-5.22v7.55h6.62l0.21,2.71
					c-0.61-0.65-1.99-0.98-4.15-0.98h-2.68v9.42h5.67c2.17,0,3.56-0.32,4.15-0.95l-0.21,2.68h-13.62V-1546.29z"/>
				<path class="st2" d="M1750.12-1546.29h13.16l0.21,2.71c-0.61-0.65-1.99-0.98-4.15-0.98h-5.22v7.55h6.62l0.21,2.71
					c-0.61-0.65-1.99-0.98-4.15-0.98h-2.68v9.42h5.67c2.18,0,3.56-0.32,4.15-0.95l-0.21,2.68h-13.62V-1546.29z"/>
			</g>
			<g>
				<path class="st2" d="M1782.12-1723.75c-0.05,31.72-0.38,20.77-0.14,52.49c0.14,17.73-3.42,18.89-7.23,18.89
					c-4.24,0-2.37-0.11-7.05,0c-1.16,0.03-4.67-0.05-5.83,0c-10.11,0.44-12.14-1.91-12.93-12.07l-0.01-11.96c0,0,0-23.46,0.03-40.82
					c0.02-9.03,0.02-18.17-2.19-26.92c-2.2-8.76-6.18-15.62-13.72-20.57c-4.29-2.82-15.72-4.41-24.21-2.34
					c-6.91,1.68-11.53,6.88-11.53,6.88c-2.47,2.04-4.71,4.43-6.34,7.2c-1.78,3.03-2.78,6.46-3.52,9.89
					c-1.82,8.58-0.86,17.14-0.97,25.91c-0.14,10.37,0.59,21.03,0.6,31.4c0.01,9.71,0.48,14.03,0.48,14.03
					c0.02,15.58-0.85,19.31-6.94,19.55c-4.84,0.2-12.07-0.04-17.62-0.22c-2.66-0.09-5.13-1.53-6.4-3.88
					c-2.11-3.92-2.37-9.47-2.38-13.87c-0.01-16.09,0.18-32.26,0.17-48.34c-0.01-17.14-2.39-33.82,0.62-47.99
					c1.21-5.69,2.85-11.34,5.79-16.35c2.7-4.59,6.44-8.48,10.5-11.91c2.56-2.16,15.53-14.68,39.53-15.88
					c15.37-0.77,32.12-0.07,44.97,8.39c12.47,8.2,19.06,19.53,22.7,34C1782.14-1753.77,1782.14-1738.68,1782.12-1723.75z"/>
				<g>
					<path class="st2" d="M1790.53-1566.44h-188.06c-13.9,0-25.21-11.31-25.21-25.21v-227.36c0-13.9,11.31-25.21,25.21-25.21h188.06
						c13.9,0,25.21,11.31,25.21,25.21v227.36C1815.75-1577.76,1804.44-1566.44,1790.53-1566.44z M1602.47-1838.23
						c-10.59,0-19.21,8.62-19.21,19.21v227.36c0,10.59,8.62,19.21,19.21,19.21h188.06c10.59,0,19.21-8.62,19.21-19.21v-227.36
						c0-10.59-8.62-19.21-19.21-19.21H1602.47z"/>
				</g>
				<path class="st2" d="M1766.4-1641.79c14.16,0.3,15.76,7.06,15.74,15.77c0,0.49,0,0.98,0,1.47c-0.01,6.5-0.24,13.64-4.57,18.5
					c-3.06,3.43-7.49,6.48-12.08,6.24c-21.07-1.11-41.63-0.06-62.52-1.11c-26.68-1.34-53.88,0.87-80.62-0.03
					c-5.12-0.17-10.69-3.71-11.78-8.72c-0.68-3.16-0.73-6.72-0.73-9.67c-0.01-16.52,0.28-33.07,0.26-49.59
					c-0.01-17.6-0.24-35.71,0-53.3c0.16-11.3-0.75-22.39,0.15-33.45v-0.02l-0.12-3.7c-0.35-10.62-0.1-28.1-0.28-39.72
					c-0.17-10.55,6.27-11.76,12.76-11.76h8.43c10.81,0,12.46,5.46,12.63,12.32c0.34,14.07,0.76,36.45,0.22,46.59
					c-0.11,1.22,0.11,18.47,0.07,19.69v0.04c-0.01,0.27-0.03,0.55-0.05,0.82v2.93c0.01,4.28,0.22,8.58,0.16,12.93
					c-0.15,10.65,0.6,21.6,0.61,32.25c0.01,9.99-0.12,20.04-0.11,30.03l0.01,3.41c0.01,4.23,3.49,7.7,7.72,7.74
					c16.28,0.14,29.78,1.18,45.63,1.98c9.69,0.48,21.59-1.8,31.27-1.65H1766.4z"/>
			</g>
		</g>
		<g>
			<g>
				<path class="st2" d="M2082.23-1563.73c1.73,0,3.5,0.26,5.31,0.78v3.29c-1.61-1.41-3.37-2.11-5.28-2.11
					c-2.08,0-3.69,0.89-4.82,2.68c-1.13,1.79-1.69,4.05-1.69,6.8c0,2.76,0.56,5.03,1.69,6.81c1.13,1.78,2.73,2.67,4.82,2.67
					c1.89,0,3.65-0.71,5.28-2.12v3.32c-1.81,0.49-3.58,0.73-5.31,0.73c-3.31,0-5.99-1.09-8.04-3.27s-3.07-4.89-3.07-8.14
					c0-3.23,1.03-5.95,3.1-8.14S2078.95-1563.73,2082.23-1563.73z"/>
				<path class="st2" d="M2113.51-1560.39c2.04,2.21,3.07,4.89,3.07,8.03s-1.02,5.83-3.07,8.06c-2.05,2.23-4.52,3.35-7.42,3.35
					c-2.9,0-5.37-1.12-7.41-3.35s-3.07-4.92-3.07-8.06s1.02-5.82,3.07-8.04s4.51-3.32,7.41-3.32
					C2108.99-1563.72,2111.46-1562.61,2113.51-1560.39z M2101.97-1558.95c-1.13,1.82-1.69,4.01-1.69,6.59
					c0,2.58,0.56,4.79,1.69,6.62c1.13,1.83,2.51,2.74,4.13,2.74c1.62,0,2.99-0.91,4.13-2.74c1.14-1.83,1.71-4.03,1.71-6.62
					c0-2.57-0.57-4.77-1.71-6.59s-2.52-2.73-4.13-2.73C2104.48-1561.67,2103.1-1560.76,2101.97-1558.95z"/>
				<path class="st2" d="M2125.27-1563.42h13.6l0.21,2.71c-0.61-0.65-1.99-0.98-4.15-0.98h-5.66v7.55h6.6l0.21,2.71
					c-0.61-0.65-1.99-0.98-4.15-0.98h-2.67v11.16h-4.01V-1563.42z"/>
				<path class="st2" d="M2147.47-1563.42h13.6l0.21,2.71c-0.61-0.65-1.99-0.98-4.15-0.98h-5.66v7.55h6.6l0.21,2.71
					c-0.61-0.65-1.99-0.98-4.15-0.98h-2.67v11.16h-4.01V-1563.42z"/>
				<path class="st2" d="M2169.67-1563.42h13.16l0.21,2.71c-0.61-0.65-1.99-0.98-4.15-0.98h-5.22v7.55h6.62l0.21,2.71
					c-0.61-0.65-1.99-0.98-4.15-0.98h-2.68v9.42h5.67c2.17,0,3.56-0.32,4.15-0.95l-0.21,2.68h-13.62V-1563.42z"/>
				<path class="st2" d="M2192.18-1563.42h13.16l0.21,2.71c-0.61-0.65-1.99-0.98-4.15-0.98h-5.22v7.55h6.62l0.21,2.71
					c-0.61-0.65-1.99-0.98-4.15-0.98h-2.68v9.42h5.67c2.18,0,3.56-0.32,4.15-0.95l-0.21,2.68h-13.62V-1563.42z"/>
			</g>
			<path class="st2" d="M2224.19-1706.62c-0.05,31.72-0.38,20.77-0.14,52.49c0.14,17.73-3.42,18.89-7.23,18.89
				c-4.24,0-2.37-0.11-7.05,0c-1.16,0.03-4.67-0.05-5.83,0c-10.11,0.44-12.14-1.91-12.93-12.07l-0.01-11.96c0,0,0-23.46,0.03-40.82
				c0.02-9.03,0.02-18.17-2.19-26.92c-2.2-8.76-6.18-15.62-13.72-20.57c-4.29-2.82-15.72-4.41-24.21-2.34
				c-6.91,1.68-11.53,6.88-11.53,6.88c-2.47,2.04-4.71,4.43-6.34,7.2c-1.78,3.03-2.78,6.46-3.52,9.89
				c-1.82,8.58-0.86,17.14-0.97,25.91c-0.14,10.37,0.59,21.03,0.6,31.4c0.01,9.71,0.48,14.03,0.48,14.03
				c0.02,15.58-0.85,19.31-6.94,19.55c-4.84,0.2-12.07-0.04-17.62-0.22c-2.66-0.09-5.13-1.53-6.4-3.88
				c-2.11-3.92-2.38-9.47-2.38-13.87c-0.01-16.09,0.19-32.26,0.17-48.34c-0.01-17.14-2.39-33.82,0.62-47.99
				c1.21-5.69,2.85-11.34,5.79-16.35c2.7-4.59,6.44-8.48,10.5-11.91c2.56-2.16,15.53-14.68,39.53-15.88
				c15.37-0.77,32.12-0.07,44.98,8.39c12.47,8.2,19.06,19.53,22.7,34C2224.21-1736.64,2224.21-1721.55,2224.19-1706.62z"/>
			<path class="st3" d="M2063.84-1552.31"/>
			<g>
				<path class="st2" d="M2232.6-1549.31h-17.62v-6h17.62c10.59,0,19.21-8.62,19.21-19.21v-227.36c0-10.59-8.62-19.21-19.21-19.21
					h-188.06c-10.59,0-19.21,8.62-19.21,19.21v227.36c0,10.59,8.62,19.21,19.21,19.21h19.3v6h-19.3c-13.9,0-25.21-11.31-25.21-25.21
					v-227.36c0-13.9,11.31-25.21,25.21-25.21h188.06c13.9,0,25.21,11.31,25.21,25.21v227.36
					C2257.81-1560.62,2246.51-1549.31,2232.6-1549.31z"/>
			</g>
			<path class="st2" d="M2208.47-1624.66c14.16,0.3,15.76,7.06,15.74,15.77c0,0.49,0,0.98,0,1.47c-0.01,6.5-0.24,13.64-4.57,18.5
				c-3.06,3.43-7.49,6.48-12.08,6.24c-21.07-1.11-41.63-0.06-62.52-1.11c-26.68-1.34-53.88,0.87-80.62-0.03
				c-5.12-0.17-10.69-3.71-11.78-8.72c-0.68-3.16-0.73-6.72-0.73-9.67c-0.01-16.52,0.28-33.07,0.26-49.59
				c-0.01-17.6-0.24-35.71,0-53.3c0.16-11.3-0.75-22.39,0.15-33.45v-0.02l-0.12-3.7c-0.35-10.62-0.1-28.1-0.28-39.72
				c-0.17-10.55,6.27-11.76,12.76-11.76h8.43c10.81,0,12.46,5.46,12.63,12.32c0.34,14.07,0.76,36.45,0.22,46.59
				c-0.11,1.22,0.11,18.47,0.07,19.69v0.04c-0.01,0.27-0.03,0.55-0.05,0.82v2.93c0.01,4.28,0.22,8.58,0.16,12.93
				c-0.15,10.65,0.6,21.6,0.61,32.25c0.01,9.99-0.12,20.04-0.11,30.03l0.01,3.41c0.01,4.23,3.49,7.7,7.72,7.74
				c16.28,0.14,29.78,1.18,45.63,1.98c9.69,0.48,21.59-1.8,31.27-1.65H2208.47z"/>
		</g>
	</g>
	<g class="st1">
		<g>
			<g>
				<path class="st2" d="M1865.3-2108.67c-3.74-14.86-10.51-26.5-23.31-34.92c-13.2-8.69-30.4-7.38-46.19-7.61
					c-28.18-0.44-58.94-2.72-80.6,15.31c-4.19,3.49-8.01,7.51-10.78,12.23c-3.02,5.14-4.71,10.95-5.95,16.79
					c-3.09,14.56-1.44,29.1-1.65,43.99c-0.24,17.59,1,35.7,1.01,53.3c0.02,16.52-0.18,33.13-0.17,49.65
					c0.01,6.35,0.55,15.02,6.09,18.11c28.45,1.43,57.49-1.18,85.94,0.25c20.88,1.05,41.45,0,62.51,1.11
					c4.59,0.24,9.03-2.81,12.09-6.24c4.32-4.86,4.56-12,4.57-18.5c0.05-32.58,0.09-65.18,0.14-97.76
					C1869.02-2078.3,1869.02-2093.8,1865.3-2108.67z M1834.94-2056.26c-0.03,19.71-0.05,39.42-0.08,59.13
					c-0.01,3.94-0.15,8.25-2.77,11.19c-1.85,2.08-4.52,3.93-7.31,3.78c-12.74-0.68-25.19-0.04-37.82-0.68
					c-17.21-0.86-34.78,0.72-51.99-0.15c-3.35-1.87-3.68-7.12-3.69-10.95c-0.01-9.99,0.12-20.05,0.11-30.04
					c-0.01-10.65-0.77-21.6-0.62-32.25c0.12-9.01-0.87-17.8,0.99-26.61c0.76-3.53,1.78-7.05,3.61-10.16
					c1.67-2.84,3.98-5.29,6.51-7.4c13.1-10.9,31.72-9.52,48.77-9.26c9.55,0.15,19.96-0.65,27.94,4.61
					c7.74,5.09,11.84,12.13,14.09,21.12C1834.96-2074.92,1834.96-2065.53,1834.94-2056.26z"/>
			</g>
			<g>
				<path class="st2" d="M2086.91-2010.17c-0.02,16.52,0.18,33.13,0.17,49.65c0,2.9,0.16,6.63-0.16,10.07
					c-0.44,4.65-4.4,8.18-9.07,8.22c-12.41,0.1-13.71,0.02-17.22,0c-5.34-0.03-7.39-3.18-7.24-9.31l-0.03-40.06
					c0.01-0.13,0.02-0.25,0.03-0.38c0.05-0.88,0.07-1.74,0.07-2.54c0.01-5.74-0.03-11.5-0.07-17.25c-0.01-2.14-0.02-4.27-0.03-6.4
					v-1.26c-0.01-1.71-0.01-3.41-0.01-5.12c0.01-10.65,0.76-21.6,0.61-32.25c-0.12-9.01,0.88-17.8-0.99-26.61
					c-0.76-3.53-1.78-7.05-3.61-10.16c-1.67-2.84-3.45-5.33-5.98-7.43c-3.68-3.07-7.46-5.22-11.87-6.64
					c-4.87-1.57-11.08-0.79-15.37,2.02c-3.87,2.55-6.83,5.58-9.1,9.1c-2.28,3.52-3.87,7.53-4.99,12.03c-1.49,5.9-2,11.98-2.17,18.08
					v0.01c-0.09,3.19-0.09,6.38-0.08,9.56c0.03,19.71,0.81,39.51,0.84,59.22l-0.79,46.34c0.15,10.22-4.91,9.74-11.12,9.96
					c-1.18,0.04-2.36,0.09-3.54,0.14c-0.74,0.04-1.5,0.07-2.25,0.11c-0.11,0.01-0.23,0.01-0.34,0c-0.75-0.04-1.51-0.07-2.26-0.11
					c-1.18-0.05-2.37-0.17-3.55-0.14c-12.28,0.26-10.53-9.36-10.53-15.58l-0.59-58.03c0.02-13.97,0.04-27.94,0.06-41.91
					c0.02-9.27,0.02-18.66-2.25-27.65c-1.12-4.5-2.71-8.51-4.99-12.03c-2.27-3.52-5.23-6.55-9.1-9.1
					c-4.29-2.81-10.5-3.59-15.37-2.02c-4.41,1.42-8.19,3.57-11.87,6.64c-2.53,2.1-4.31,4.59-5.98,7.43
					c-1.83,3.11-2.85,6.63-3.61,10.16c-1.87,8.81-0.87,17.6-0.99,26.61c-0.15,10.65,0.6,21.6,0.61,32.25c0,3.55-0.01,7.1-0.03,10.66
					c-0.03,6.46-0.09,12.93-0.08,19.37c0,0.82-0.59,23.83-0.53,24.73l0.61,20.71c0,3.64-2.97,6.71-6.61,6.83
					c-5.08,0.16-6.51,0.01-18.1,0.12c-2.35,0.02-5.6-1.36-7.13-3.14c-1.6-1.86-1.6-3.42-1.86-15.24
					c-0.37-16.52,0.19-33.13,0.17-49.65c-0.01-17.6-1.26-35.71-1.02-53.3c0.21-14.89-1.44-29.43,1.65-43.99
					c1.24-5.84,2.93-11.65,5.96-16.79c2.76-4.71,6.58-8.74,10.77-12.23c9.66-8.04,21.14-12.05,33.39-13.97
					c7.26-1.15,14.64-1.42,21.94-0.63c7.69,0.83,15.06,2.69,21.47,6.91c2.82,1.85,5.34,3.86,7.6,6.02c1.34,1.29,3.43,1.28,4.77,0
					c2.26-2.16,4.78-4.17,7.59-6.02c6.41-4.22,13.78-6.08,21.47-6.91c7.3-0.79,14.68-0.52,21.94,0.63
					c12.25,1.92,23.73,5.93,33.39,13.97c4.19,3.49,8.01,7.52,10.77,12.23c3.03,5.14,4.72,10.95,5.96,16.79
					c3.09,14.56,1.44,29.1,1.65,43.99C2088.17-2045.88,2086.92-2027.77,2086.91-2010.17z"/>
			</g>
			<path class="st2" d="M1671.97-1982.45c14.16,0.3,15.76,7.06,15.74,15.77c0,0.49,0,0.98,0,1.47c-0.01,6.5-0.24,13.64-4.57,18.5
				c-3.06,3.43-7.49,6.48-12.08,6.24c-21.07-1.11-41.63-0.06-62.52-1.11c-26.68-1.34-53.88,0.87-80.62-0.03
				c-5.12-0.17-10.69-3.71-11.78-8.72c-0.68-3.16-0.73-6.72-0.73-9.67c-0.01-16.52,0.28-33.07,0.26-49.59
				c-0.01-17.6-0.24-35.71,0-53.3c0.16-11.3-0.75-22.39,0.15-33.45v-0.02l-0.12-3.7c-0.35-10.62-0.1-28.1-0.28-39.72
				c-0.17-10.55,6.27-11.76,12.76-11.76h8.43c10.81,0,12.46,5.46,12.63,12.32c0.34,14.07,0.76,36.45,0.22,46.59
				c-0.11,1.22,0.11,18.47,0.07,19.69v0.04c-0.01,0.27-0.03,0.55-0.05,0.82v2.93c0.01,4.28,0.22,8.58,0.16,12.93
				c-0.15,10.65,0.6,21.6,0.61,32.25c0.01,9.99-0.12,20.04-0.11,30.03l0.01,3.41c0.01,4.23,3.49,7.7,7.72,7.74
				c16.28,0.14,29.78,1.18,45.63,1.98c9.69,0.48,21.59-1.8,31.27-1.65H1671.97z"/>
			<path class="st2" d="M2258.96-2063.01c-0.05,32.58-0.4,69.33-0.14,101.91c0.14,18.21-3.51,19.4-7.42,19.4
				c-4.35,0-2.43-0.12-7.24,0c-1.19,0.03-7.8-0.05-8.99,0c-10.39,0.45-12.47-1.96-13.28-12.4l-0.01-12.28l-0.04-36.43
				c0.02-17.83,0.04-35.67,0.07-53.5c0.02-9.27,0.02-18.66-2.25-27.65c-2.26-9-6.35-16.04-14.09-21.13
				c-7.99-5.25-15.39-4.46-24.95-4.61c-17.04-0.26-23.33-1.44-36.43,9.47c-2.54,2.1-4.17,4.35-5.84,7.19
				c-1.83,3.11-2.86,6.63-3.61,10.16c-1.87,8.81-0.88,17.6-1,26.61c-0.14,10.65,0.61,21.6,0.62,32.25c0.01,9.97,0.69,43,0.69,43
				l-0.19,19.41c0.02,16-0.87,19.83-7.13,20.08c-4.97,0.2-15.39-0.04-21.09-0.23c-2.74-0.09-5.27-1.57-6.57-3.99
				c-2.16-4.02-2.44-9.72-2.45-14.24c-0.01-16.52,0.19-33.13,0.17-49.65c-0.01-17.6-1.25-35.71-1.01-53.3
				c0.21-14.89-1.44-29.43,1.65-43.99c1.24-5.84,2.93-11.65,5.95-16.79c2.77-4.71,6.58-8.74,10.78-12.23
				c21.66-18.03,40.71-15.63,70.6-15.31c15.8,0.17,32.99-1.07,46.19,7.62c12.81,8.42,19.58,20.06,23.31,34.92
				C2258.98-2093.84,2258.98-2078.34,2258.96-2063.01z"/>
			<path class="st2" d="M1687.69-2064.41c-0.05,31.72-0.38,20.77-0.14,52.49c0.14,17.73-3.42,18.89-7.23,18.89
				c-4.24,0-2.37-0.11-7.05,0c-1.16,0.03-4.67-0.05-5.83,0c-10.11,0.44-12.14-1.91-12.93-12.07l-0.01-11.96c0,0,0-23.46,0.03-40.82
				c0.02-9.03,0.02-18.17-2.19-26.92c-2.2-8.76-6.18-15.62-13.72-20.57c-4.29-2.82-15.72-4.41-24.21-2.34
				c-6.91,1.68-11.53,6.88-11.53,6.88c-2.47,2.04-4.71,4.43-6.34,7.2c-1.78,3.03-2.78,6.46-3.52,9.89
				c-1.82,8.58-0.86,17.14-0.97,25.91c-0.14,10.37,0.59,21.03,0.6,31.4c0.01,9.71,0.48,14.03,0.48,14.03
				c0.02,15.58-0.85,19.31-6.94,19.55c-4.84,0.2-12.07-0.04-17.62-0.22c-2.66-0.09-5.13-1.53-6.4-3.88
				c-2.11-3.92-2.38-9.47-2.38-13.87c-0.01-16.09,0.18-32.26,0.17-48.34c-0.01-17.14-2.39-33.82,0.62-47.99
				c1.21-5.69,2.85-11.34,5.79-16.35c2.7-4.59,6.44-8.48,10.5-11.91c2.56-2.16,15.53-14.68,39.53-15.88
				c15.37-0.77,32.12-0.07,44.97,8.39c12.47,8.2,19.06,19.53,22.7,34C1687.71-2094.43,1687.71-2079.33,1687.69-2064.41z"/>
		</g>
		<g>
			<path class="st2" d="M1830.84-1887.26c1.73,0,3.5,0.26,5.31,0.78v3.29c-1.61-1.41-3.37-2.11-5.28-2.11
				c-2.08,0-3.69,0.89-4.82,2.68c-1.13,1.79-1.69,4.05-1.69,6.8c0,2.76,0.56,5.03,1.69,6.81c1.13,1.78,2.73,2.67,4.82,2.67
				c1.89,0,3.65-0.71,5.28-2.12v3.32c-1.81,0.49-3.58,0.73-5.31,0.73c-3.31,0-5.99-1.09-8.04-3.27s-3.07-4.89-3.07-8.14
				c0-3.23,1.03-5.95,3.1-8.14S1827.56-1887.26,1830.84-1887.26z"/>
			<path class="st2" d="M1862.13-1883.91c2.04,2.21,3.07,4.89,3.07,8.03s-1.02,5.83-3.07,8.06c-2.05,2.23-4.52,3.35-7.42,3.35
				c-2.9,0-5.37-1.12-7.41-3.35s-3.07-4.92-3.07-8.06s1.02-5.82,3.07-8.04s4.51-3.32,7.41-3.32
				C1857.6-1887.24,1860.07-1886.13,1862.13-1883.91z M1850.58-1882.47c-1.13,1.82-1.69,4.01-1.69,6.59c0,2.58,0.56,4.79,1.69,6.62
				c1.13,1.83,2.51,2.74,4.13,2.74c1.62,0,2.99-0.91,4.13-2.74c1.14-1.83,1.71-4.03,1.71-6.62c0-2.57-0.57-4.77-1.71-6.59
				s-2.52-2.73-4.13-2.73C1853.09-1885.2,1851.71-1884.29,1850.58-1882.47z"/>
			<path class="st2" d="M1873.88-1886.95h13.6l0.21,2.71c-0.61-0.65-1.99-0.98-4.15-0.98h-5.66v7.55h6.6l0.21,2.71
				c-0.61-0.65-1.99-0.98-4.15-0.98h-2.67v11.16h-4.01V-1886.95z"/>
			<path class="st2" d="M1896.08-1886.95h13.6l0.21,2.71c-0.61-0.65-1.99-0.98-4.15-0.98h-5.66v7.55h6.6l0.21,2.71
				c-0.61-0.65-1.99-0.98-4.15-0.98h-2.67v11.16h-4.01V-1886.95z"/>
			<path class="st2" d="M1918.28-1886.95h13.16l0.21,2.71c-0.61-0.65-1.99-0.98-4.15-0.98h-5.22v7.55h6.62l0.21,2.71
				c-0.61-0.65-1.99-0.98-4.15-0.98h-2.68v9.42h5.67c2.17,0,3.56-0.32,4.15-0.95l-0.21,2.68h-13.62V-1886.95z"/>
			<path class="st2" d="M1940.8-1886.95h13.16l0.21,2.71c-0.61-0.65-1.99-0.98-4.15-0.98h-5.22v7.55h6.62l0.21,2.71
				c-0.61-0.65-1.99-0.98-4.15-0.98h-2.68v9.42h5.67c2.18,0,3.56-0.32,4.15-0.95l-0.21,2.68h-13.62V-1886.95z"/>
		</g>
		<g>
			<path class="st2" d="M2266.33-1907.1h-758.3c-13.9,0-25.21-11.31-25.21-25.21v-227.36c0-13.9,11.31-25.21,25.21-25.21h758.3
				c13.9,0,25.21,11.31,25.21,25.21v227.36C2291.54-1918.41,2280.23-1907.1,2266.33-1907.1z M1508.03-2178.89
				c-10.59,0-19.21,8.62-19.21,19.21v227.36c0,10.59,8.62,19.21,19.21,19.21h758.3c10.59,0,19.21-8.62,19.21-19.21v-227.36
				c0-10.59-8.62-19.21-19.21-19.21H1508.03z"/>
		</g>
	</g>
</g>
<rect x="1130" y="-734.91" class="st2" width="1080" height="654.34"/>
<rect x="0" y="-734.91" class="st4" width="1080" height="654.34"/>
<rect x="1130" class="st2" width="1080" height="1080"/>
<rect x="0" class="st4" width="1080" height="1080"/>
<g>
	<g>
		<path class="st2" d="M513.35-509.51c-4.55-18.1-12.8-32.27-28.39-42.53c-16.08-10.58-37.02-8.98-56.25-9.27
			c-34.32-0.53-71.78-3.32-98.16,18.64c-5.11,4.25-9.76,9.15-13.12,14.89c-3.68,6.26-5.74,13.34-7.25,20.45
			c-3.76,17.73-1.76,35.44-2.01,53.58c-0.29,21.43,1.22,43.48,1.23,64.91c0.02,20.12-0.22,40.35-0.21,60.47
			c0.01,7.74,0.67,18.29,7.42,22.06c34.65,1.74,70.02-1.44,104.66,0.3c25.43,1.28,50.48,0,76.13,1.36
			c5.59,0.29,10.99-3.43,14.72-7.6c5.27-5.92,5.56-14.61,5.57-22.53c0.06-39.68,0.11-79.37,0.17-119.05
			C517.89-472.52,517.89-491.4,513.35-509.51z M476.38-445.68c-0.04,24-0.06,48.01-0.1,72.01c-0.01,4.79-0.18,10.05-3.38,13.63
			c-2.25,2.53-5.51,4.78-8.9,4.6c-15.52-0.82-30.67-0.05-46.06-0.82c-20.95-1.05-42.36,0.87-63.31-0.18
			c-4.08-2.28-4.48-8.67-4.49-13.34c-0.01-12.17,0.15-24.42,0.13-36.58c-0.01-12.96-0.93-26.3-0.75-39.27
			c0.15-10.97-1.07-21.68,1.21-32.41c0.92-4.3,2.17-8.58,4.39-12.37c2.03-3.46,4.84-6.44,7.93-9.01
			c15.95-13.28,38.63-11.6,59.39-11.28c11.63,0.18,24.31-0.79,34.03,5.62c9.43,6.2,14.42,14.77,17.17,25.72
			C476.4-468.4,476.4-456.98,476.38-445.68z"/>
	</g>
	<g>
		<path class="st2" d="M783.23-389.56c-0.02,20.12,0.22,40.35,0.21,60.46c-0.01,3.53,0.2,8.08-0.2,12.27
			c-0.53,5.66-5.36,9.96-11.05,10.01c-15.12,0.13-16.69,0.03-20.98,0c-6.51-0.04-8.99-3.87-8.81-11.34l-0.03-48.79
			c0.01-0.16,0.02-0.3,0.04-0.46c0.06-1.07,0.09-2.12,0.09-3.09c0.01-6.99-0.04-14-0.09-21.01c-0.01-2.61-0.02-5.2-0.04-7.79v-1.53
			c-0.01-2.08-0.01-4.15-0.01-6.24c0.01-12.97,0.93-26.3,0.74-39.27c-0.15-10.97,1.07-21.68-1.21-32.41
			c-0.93-4.3-2.17-8.59-4.4-12.37c-2.03-3.46-4.2-6.49-7.28-9.05c-4.48-3.74-9.08-6.36-14.46-8.09c-5.93-1.91-13.49-0.96-18.72,2.46
			c-4.71,3.11-8.32,6.8-11.08,11.08c-2.78,4.29-4.71,9.17-6.08,14.65c-1.81,7.19-2.44,14.59-2.64,22.02v0.01
			c-0.11,3.88-0.11,7.77-0.1,11.64c0.04,24,0.99,48.12,1.03,72.12l-0.96,56.43c0.18,12.45-5.98,11.87-13.55,12.13
			c-1.44,0.05-2.87,0.11-4.31,0.17c-0.91,0.05-1.82,0.09-2.74,0.14c-0.14,0.01-0.27,0.01-0.41,0c-0.92-0.05-1.84-0.09-2.75-0.14
			c-1.44-0.06-2.88-0.2-4.32-0.17c-14.95,0.32-12.83-11.4-12.83-18.97l-0.72-70.67c0.02-17.01,0.05-34.03,0.07-51.04
			c0.02-11.29,0.02-22.72-2.74-33.67c-1.36-5.48-3.3-10.36-6.08-14.65c-2.76-4.29-6.37-7.98-11.08-11.08
			c-5.22-3.42-12.79-4.37-18.72-2.46c-5.37,1.73-9.97,4.35-14.46,8.09c-3.08,2.56-5.25,5.59-7.28,9.05
			c-2.23,3.79-3.47,8.07-4.4,12.37c-2.28,10.73-1.06,21.43-1.21,32.41c-0.18,12.97,0.73,26.3,0.74,39.27
			c0,4.32-0.01,8.65-0.04,12.98c-0.04,7.87-0.11,15.75-0.1,23.59c0,1-0.72,29.02-0.65,30.12l0.75,25.22c0,4.43-3.62,8.17-8.05,8.31
			c-6.19,0.2-7.92,0.01-22.04,0.14c-2.86,0.03-6.82-1.65-8.69-3.82c-1.95-2.27-1.95-4.17-2.27-18.56
			c-0.45-20.11,0.23-40.35,0.21-60.46c-0.01-21.43-1.53-43.49-1.24-64.91c0.26-18.13-1.75-35.84,2.01-53.57
			c1.51-7.11,3.57-14.19,7.26-20.45c3.36-5.74,8.01-10.64,13.12-14.89c11.76-9.79,25.74-14.67,40.66-17.01
			c8.84-1.4,17.83-1.73,26.72-0.77c9.37,1.01,18.34,3.28,26.15,8.42c3.43,2.25,6.5,4.7,9.26,7.33c1.64,1.57,4.18,1.56,5.81,0
			c2.75-2.64,5.82-5.08,9.25-7.33c7.81-5.14,16.78-7.4,26.15-8.42c8.89-0.96,17.88-0.63,26.72,0.77
			c14.92,2.34,28.9,7.22,40.66,17.01c5.1,4.25,9.75,9.16,13.12,14.89c3.69,6.26,5.75,13.34,7.26,20.45
			c3.76,17.73,1.75,35.44,2.01,53.57C784.77-433.05,783.24-410.99,783.23-389.56z"/>
	</g>
	<path class="st2" d="M277.91-355.79c17.24,0.37,19.19,8.6,19.17,19.2c0,0.6,0,1.2,0,1.8c-0.01,7.92-0.29,16.61-5.57,22.53
		c-3.73,4.18-9.12,7.89-14.71,7.6c-25.66-1.35-50.7-0.07-76.14-1.35c-32.49-1.63-65.61,1.06-98.18-0.03
		c-6.23-0.21-13.02-4.52-14.34-10.62c-0.83-3.85-0.89-8.18-0.89-11.78c-0.01-20.12,0.34-40.28,0.31-60.4
		c-0.01-21.43-0.29-43.49,0-64.91c0.2-13.76-0.91-27.27,0.18-40.74v-0.02l-0.15-4.51c-0.43-12.93-0.12-34.22-0.35-48.38
		c-0.21-12.85,7.63-14.32,15.54-14.32h10.27c13.16,0,15.17,6.65,15.38,15c0.42,17.14,0.92,44.39,0.27,56.74
		c-0.13,1.49,0.14,22.5,0.09,23.98v0.05c-0.01,0.33-0.04,0.67-0.06,1v3.57c0.01,5.21,0.27,10.45,0.19,15.75
		c-0.18,12.97,0.73,26.3,0.74,39.27c0.01,12.17-0.15,24.41-0.13,36.57l0.01,4.16c0.02,5.15,4.25,9.38,9.4,9.42
		c19.82,0.17,36.27,1.44,55.57,2.42c11.8,0.58,26.29-2.19,38.08-2H277.91z"/>
	<path class="st2" d="M988.24-509.56c-4.54-18.1-12.79-32.27-28.39-42.53c-16.08-10.58-37.01-9.07-56.25-9.28
		c-36.39-0.4-59.6-3.31-85.98,18.64c-5.11,4.25-9.75,9.16-13.13,14.89c-3.68,6.26-5.74,13.34-7.25,20.45
		c-3.76,17.73-1.75,35.44-2.01,53.57c-0.29,21.42,1.22,43.48,1.23,64.91c0.02,20.12-0.22,40.35-0.21,60.46
		c0.01,5.5,0.35,12.45,2.98,17.34c1.57,2.93,4.66,4.75,8,4.86c6.94,0.22,19.63,0.52,25.68,0.28c7.62-0.32,8.71-4.98,8.68-24.47
		l0.2-22.5c-0.02-0.67,0.46-3.54,3.33-3.63l3.96,0.2c14.74,0.73,29.5,0.96,44.26,0.71l51.76-0.9c1.35,0,2.44,1.09,2.44,2.44
		l0.02,17.89l0.02,14.97c0.99,12.71,3.52,15.65,16.17,15.1c1.45-0.07,9.49,0.02,10.95,0c5.86-0.15,3.52,0,8.82,0
		c4.76,0,9.21-1.46,9.04-23.64c-0.3-39.68,0.11-84.43,0.17-124.11C992.79-472.58,992.79-491.45,988.24-509.56z M947.63-445.73
		c-0.04,21.71-0.06,43.44-0.09,65.15l0.01,9.76c0,1.35-1.09,2.44-2.44,2.44l0,0c-14.63,0.86-29.29,1.18-43.95,0.94l-57.2-0.94
		c-1.33,0-2.42-1.06-2.44-2.39c-0.23-12.54-0.5-28.69-0.52-35.64c-0.01-12.97-0.93-26.3-0.76-39.27
		c0.15-10.97-1.06-21.68,1.22-32.41c0.91-4.3,2.17-8.59,4.4-12.37c2.03-3.46,4.03-6.2,7.12-8.76c15.95-13.29,23.6-11.85,44.35-11.53
		c11.64,0.18,20.65-0.78,30.38,5.61c9.43,6.2,14.41,14.77,17.16,25.73C947.65-468.46,947.65-457.02,947.63-445.73z"/>
	<path class="st2" d="M162.1-542.09c-0.06,0.05-0.12,0.1-0.17,0.16c0.06-0.05,0.11-0.1,0.17-0.15c0.4-0.34,1.02-0.89,1.85-1.61
		C163.13-542.98,162.51-542.43,162.1-542.09z M180.54-469.58c0.09-1.35,0.2-2.7,0.34-4.06
		C180.72-472.29,180.61-470.93,180.54-469.58z M184.58-488.35c0.44-0.97,0.93-1.94,1.46-2.85
		C185.5-490.27,185.01-489.32,184.58-488.35z M210.24-561.43c-11.87,0.6-21.53,3.46-29.02,6.83c7.49-3.36,17.16-6.22,29.02-6.82
		c1.74-0.09,3.5-0.16,5.26-0.22C213.74-561.59,211.99-561.52,210.24-561.43z M261.87-370.03c0.07,0.05,0.16,0.09,0.23,0.12
		c0.24,0.12,0.5,0.23,0.75,0.34C262.51-369.7,262.17-369.84,261.87-370.03z M262.85-369.56c0.1,0.04,0.19,0.06,0.29,0.1
		c0.28,0.1,0.57,0.18,0.88,0.27C263.61-369.3,263.22-369.42,262.85-369.56z M296.77-477.79c0.11,2.9,0.18,5.8,0.23,8.7
		C296.97-471.99,296.89-474.89,296.77-477.79z M297.05-459.74v4.14c-0.01,3.06-0.01,5.78-0.02,8.23c0.02-2.45,0.02-5.18,0.04-8.23
		C297.06-456.98,297.06-458.35,297.05-459.74z"/>
	<path class="st2" d="M297.04-463.9c0-1.39,0-2.76-0.02-4.15c-0.01-0.35-0.01-0.69-0.01-1.05c-0.05-2.9-0.12-5.8-0.23-8.7
		c-0.02-0.58-0.05-1.16-0.07-1.74c-0.04-0.69-0.07-1.39-0.11-2.08c-0.06-1.12-0.12-2.24-0.21-3.36c-0.07-0.99-0.15-1.99-0.23-2.97
		c-0.17-1.99-0.37-3.98-0.61-5.97c-0.11-0.89-0.22-1.77-0.35-2.65c-0.61-4.45-1.44-8.85-2.53-13.23
		c-4.42-17.62-12.45-31.42-27.64-41.41c-1.6-1.05-3.23-2-4.91-2.86c-0.84-0.43-1.69-0.83-2.56-1.22c-0.43-0.19-0.86-0.39-1.3-0.57
		c-1.3-0.55-2.63-1.05-3.98-1.5c-2.78-0.95-5.64-1.7-8.55-2.3c-3.53-0.73-7.14-1.23-10.78-1.56c-1.19-0.11-2.39-0.19-3.58-0.26
		c-0.8-0.05-1.6-0.1-2.4-0.12c-2.03-0.09-4.07-0.12-6.09-0.12c-1.79,0-3.58,0.02-5.36,0.07c-1.77,0.06-3.52,0.13-5.26,0.22
		c-11.86,0.6-21.53,3.46-29.02,6.82c0,0,0,0.01-0.01,0.01c-5.96,2.68-10.55,5.69-13.79,8.12c-0.22,0.16-0.43,0.32-0.62,0.46
		c-0.86,0.67-1.61,1.28-2.25,1.83c-0.21,0.16-0.4,0.33-0.58,0.47c0,0,0,0.01-0.01,0.01c-0.83,0.72-1.45,1.27-1.85,1.61
		c-0.06,0.05-0.11,0.1-0.17,0.15c-0.06,0.05-0.12,0.1-0.18,0.16c-0.56,0.47-1.11,0.95-1.66,1.45c-0.55,0.47-1.08,0.97-1.61,1.49
		c-0.6,0.56-1.17,1.13-1.73,1.72c-2.84,2.9-5.38,6.05-7.44,9.55c-3.58,6.09-5.58,12.98-7.05,19.9c-0.91,4.31-1.42,8.8-1.67,13.46
		c-0.07,1.3-0.11,2.62-0.15,3.93c-0.02,1.28-0.04,2.57-0.04,3.87c0,2.95,0.06,5.96,0.17,8.99c0.05,1.51,0.11,3.03,0.17,4.57
		c0.04,0.78,0.06,1.56,0.1,2.34c0.3,6.97,0.65,14.09,0.66,21.29c0.01,5.42-0.01,10.84-0.04,16.26c-0.02,4.7-0.05,9.39-0.07,14.09
		c-0.05,9.01-0.1,18.02-0.1,27.02v1.51c0,1.34,0.02,2.76,0.1,4.23c0.15,2.93,0.49,5.99,1.27,8.77c0.1,0.35,0.21,0.69,0.32,1.02
		c0.34,1.01,0.74,1.99,1.22,2.87c0.19,0.35,0.4,0.69,0.65,1.02c0.24,0.32,0.5,0.62,0.77,0.9c0.13,0.15,0.28,0.29,0.43,0.41
		c0.58,0.52,1.23,0.97,1.92,1.34c1.23,0.63,2.61,1,4.03,1.05c0.62,0.02,1.25,0.04,1.9,0.06c4.54,0.15,9.74,0.3,14.29,0.3
		c0.95,0,1.88-0.01,2.75-0.02c0.86-0.01,1.69-0.04,2.47-0.07h0.04c2.3-0.1,3.98-0.6,5.21-1.8c0.13-0.11,0.24-0.24,0.37-0.38
		c2.45-2.87,2.9-9.11,2.89-21.63c0,0-0.04-0.34-0.1-1.04c-0.01-0.17-0.02-0.34-0.04-0.55c0-0.04-0.01-0.07-0.01-0.12
		c-0.02-0.38-0.06-0.83-0.1-1.35c0-0.18-0.01-0.39-0.02-0.58c-0.02-0.32-0.04-0.66-0.05-1.01c0-0.05-0.01-0.11-0.01-0.17
		c-0.01-0.26-0.02-0.52-0.04-0.8c0,0,0-0.01,0-0.02c0-1.86,1.51-3.41,3.4-3.41h68.3c1.88,0,3.4,1.52,3.4,3.4c0,0.01,0,0.01,0,0.01
		l0.02,14.55c0.11,1.42,0.24,2.74,0.4,3.92c0,0,0,0,0,0.01c0.17,1.18,0.37,2.24,0.61,3.2v0.01c0.12,0.47,0.26,0.93,0.4,1.35
		c0.15,0.43,0.3,0.84,0.47,1.22c0.18,0.38,0.37,0.72,0.57,1.05s0.44,0.62,0.67,0.91c0.11,0.15,0.24,0.28,0.38,0.41
		c0.26,0.26,0.52,0.49,0.82,0.71c0,0.01,0,0.01,0.01,0.01c0.13,0.1,0.27,0.19,0.41,0.28c0.15,0.1,0.3,0.17,0.46,0.26
		c0.07,0.05,0.16,0.09,0.23,0.12c0.24,0.12,0.5,0.23,0.75,0.34c0.1,0.04,0.19,0.06,0.29,0.1c0.28,0.1,0.57,0.18,0.88,0.27
		c0.07,0.02,0.16,0.05,0.24,0.06c0.39,0.1,0.79,0.18,1.22,0.24c0.01,0,0.04,0,0.05,0.01c0.26,0.04,0.51,0.07,0.79,0.1l0.72,0.06
		c0.19,0.02,0.39,0.04,0.58,0.05l0.72,0.04c1.22,0.05,2.56,0.02,4.06-0.04h0.3c0.18-0.01,0.4-0.01,0.65-0.01h0.58
		c0.89,0,1.96,0.01,2.95,0.01c0.63,0.01,1.24,0.01,1.74,0.01c0.35,0,0.66-0.01,0.88-0.01c3.32-0.07,3.93-0.06,4.9-0.04
		c0.06,0,0.13,0.01,0.21,0c0.16,0.01,0.34,0.01,0.55,0.01c0.62,0.01,1.49,0.02,2.93,0.02c0.45,0,0.89-0.01,1.33-0.05
		c0.16-0.01,0.33-0.04,0.49-0.06c0.32-0.05,0.63-0.12,0.95-0.22c0.46-0.15,0.93-0.35,1.35-0.65c0,0,0,0.01,0.01,0
		c0.29-0.21,0.57-0.44,0.84-0.71c2.34-2.37,3.95-8.03,3.84-21.32c-0.18-22.63-0.11-27.43-0.01-35.28c0-0.47,0.01-0.95,0.01-1.45
		c0.04-2.45,0.06-5.26,0.09-8.98c0.01-0.5,0.01-1.01,0.01-1.53c0.01-1.33,0.02-2.76,0.02-4.32c0-1.28,0.01-2.65,0.01-4.13
		c0.01-2.45,0.01-5.18,0.02-8.23v-4.14C297.05-461.13,297.05-462.51,297.04-463.9z M256.67-447.65c-0.01,9.97-0.02,21.6-0.04,31.12
		c0,1.88-1.52,3.39-3.4,3.39h-68.62c-1.83,0-3.29-1.41-3.39-3.22c0-0.04,0-0.09-0.01-0.12c-0.05-2.29-0.11-4.59-0.18-6.89
		c-0.06-2.3-0.15-4.62-0.22-6.93c0-0.29-0.01-0.58-0.02-0.88c-0.09-2.92-0.16-5.83-0.2-8.74c-0.04-2.57-0.05-5.13-0.01-7.67
		c0.01-0.66,0.01-1.32,0.01-1.99c0-2.3-0.05-4.59-0.1-6.87c-0.02-1.18-0.06-2.36-0.07-3.56c-0.01-1.05-0.02-2.09-0.04-3.14
		c0-1.04,0.01-2.08,0.04-3.13c0-0.12,0-0.23,0.01-0.35c0.01-0.85,0.04-1.7,0.09-2.55c0.01-0.13,0.01-0.27,0.02-0.4
		c0.07-1.35,0.18-2.7,0.34-4.06c0.05-0.45,0.11-0.9,0.17-1.35c0.18-1.39,0.41-2.78,0.71-4.16c0.22-1.05,0.46-2.09,0.74-3.13
		c0.13-0.52,0.28-1.04,0.44-1.55c0.23-0.77,0.47-1.53,0.74-2.29c0.27-0.76,0.57-1.5,0.9-2.23c0.43-0.97,0.91-1.92,1.46-2.85
		c1.97-3.37,4.7-6.27,7.72-8.77c0,0,5.63-6.33,14.04-8.38c3.26-0.79,6.88-1.14,10.47-1.14c3.9,0,7.76,0.41,11.09,1.12
		c0.41,0.09,0.83,0.18,1.22,0.28c0.69,0.17,1.36,0.34,2,0.55c0.01,0,0.01,0,0.01,0c1.9,0.57,3.52,1.27,4.69,2.05
		c2.3,1.51,4.32,3.17,6.11,4.97c5.36,5.39,8.59,12.09,10.59,20.09C256.69-469.78,256.69-458.63,256.67-447.65z M287.31-455.61
		c-0.02,16.29-0.11,23.28-0.18,28.9c-0.09,7.67-0.16,12.74,0.02,35.12c0.06,7.37-0.46,11.24-0.89,13.18
		c-0.73-0.01-1.18-0.02-1.56-0.02c-0.51-0.02-0.94-0.02-1.58-0.02c-0.84,0-2,0.01-3.86,0.06h-0.63c-0.6,0-1.34,0-2.11-0.01
		c-0.89,0-1.8-0.01-2.58-0.01c-0.88,0-1.49,0.01-1.96,0.02c-0.79,0.04-1.52,0.06-2.17,0.06c-1.29,0-2.14-0.07-2.68-0.15
		c-0.21-0.8-0.5-2.36-0.74-5.27l-0.01-14.16c0-0.29,0-28.81,0.04-49.7c0.02-10.9,0.05-23.26-2.96-35.18
		c-3.52-14-10.13-23.8-20.81-30.82c-6.28-4.13-16.7-5.6-24.36-5.6c-4.6,0-8.9,0.49-12.78,1.42c-9.68,2.35-16.4,8.63-18.44,10.74
		c-3.97,3.36-7.14,7.04-9.43,10.92c-3.13,5.33-4.59,11.09-5.41,14.97c-1.84,8.62-1.66,16.88-1.49,24.86
		c0.06,2.96,0.12,5.76,0.09,8.6c-0.1,7.12,0.13,14.35,0.37,21.35c0.17,5.63,0.37,11.45,0.37,17.03c0.01,10.14,0.44,15.78,0.6,17.54
		c0,3.09-0.02,10.06-0.55,13.66c-1.02,0.02-2.17,0.04-3.43,0.04c-4.92,0-10.78-0.19-15.59-0.35c-1.53-3.34-1.55-9.74-1.55-11.89
		c-0.01-9.54,0.05-19.28,0.1-28.69c0.06-9.9,0.11-20.13,0.1-30.19c0-6.71-0.29-13.3-0.57-19.68c-0.58-13.41-1.14-26.06,1.12-36.73
		c1.6-7.49,3.42-12.74,5.93-17c2.34-3.98,5.83-7.92,10.67-12c0.21-0.18,0.48-0.4,0.78-0.67c11.53-10.07,25.51-15.58,41.56-16.38
		c3.7-0.18,7.01-0.28,10.13-0.28c8.62,0,16.01,0.71,22.41,2.18c6.39,1.46,11.78,3.69,16.39,6.73c12.09,7.94,19.35,18.94,23.54,35.63
		C287.36-490.87,287.33-472.94,287.31-455.61z"/>
	<g>
		<path class="st2" d="M471.38-281.6c2.11,0,4.26,0.32,6.46,0.94v4c-1.96-1.71-4.1-2.57-6.43-2.57c-2.54,0-4.49,1.09-5.87,3.26
			c-1.37,2.18-2.06,4.94-2.06,8.28c0,3.36,0.69,6.12,2.06,8.29c1.37,2.17,3.33,3.26,5.87,3.26c2.3,0,4.45-0.86,6.43-2.59v4.04
			c-2.2,0.59-4.36,0.89-6.46,0.89c-4.04,0-7.3-1.33-9.79-3.98c-2.49-2.65-3.73-5.96-3.73-9.91c0-3.94,1.26-7.24,3.77-9.92
			C464.15-280.26,467.4-281.6,471.38-281.6z"/>
		<path class="st2" d="M509.49-277.52c2.49,2.69,3.73,5.95,3.73,9.78c0,3.82-1.25,7.1-3.74,9.81c-2.5,2.72-5.51,4.08-9.04,4.08
			c-3.53,0-6.54-1.36-9.03-4.08c-2.49-2.72-3.73-5.99-3.73-9.81c0-3.82,1.24-7.09,3.73-9.79c2.49-2.7,5.5-4.05,9.03-4.05
			C503.97-281.58,506.99-280.22,509.49-277.52z M495.43-275.76c-1.37,2.21-2.06,4.89-2.06,8.02c0,3.14,0.69,5.83,2.06,8.06
			c1.37,2.23,3.05,3.34,5.03,3.34c1.97,0,3.65-1.11,5.03-3.34c1.39-2.23,2.08-4.91,2.08-8.06c0-3.13-0.69-5.81-2.08-8.02
			c-1.39-2.21-3.06-3.32-5.03-3.32C498.48-279.08,496.8-277.98,495.43-275.76z"/>
		<path class="st2" d="M523.8-281.22h16.57l0.26,3.3c-0.74-0.79-2.43-1.19-5.05-1.19h-6.89v9.19h8.04l0.26,3.3
			c-0.74-0.79-2.43-1.19-5.05-1.19h-3.25v13.59h-4.88V-281.22z"/>
		<path class="st2" d="M550.83-281.22h16.57l0.26,3.3c-0.74-0.79-2.43-1.19-5.05-1.19h-6.89v9.19h8.04l0.26,3.3
			c-0.74-0.79-2.43-1.19-5.05-1.19h-3.25v13.59h-4.88V-281.22z"/>
		<path class="st2" d="M577.87-281.22h16.03l0.26,3.3c-0.74-0.79-2.43-1.19-5.05-1.19h-6.35v9.19h8.06l0.26,3.3
			c-0.74-0.79-2.43-1.19-5.05-1.19h-3.27v11.47h6.91c2.65,0,4.33-0.38,5.05-1.15l-0.26,3.26h-16.59V-281.22z"/>
		<path class="st2" d="M605.29-281.22h16.03l0.26,3.3c-0.74-0.79-2.43-1.19-5.05-1.19h-6.35v9.19h8.06l0.26,3.3
			c-0.74-0.79-2.43-1.19-5.05-1.19h-3.27v11.47h6.91c2.65,0,4.33-0.38,5.05-1.15l-0.26,3.26h-16.59V-281.22z"/>
	</g>
	<path class="st2" d="M141.51-449.23c-0.01-7.2-0.35-14.32-0.66-21.29c0.29,6.97,0.63,14.1,0.65,21.3c0.01,5.41,0,10.83-0.02,16.25
		C141.5-438.39,141.52-443.81,141.51-449.23z M142.98-376.33c0.33,1.01,0.73,1.99,1.22,2.87
		C143.73-374.35,143.32-375.32,142.98-376.33z M146.04-371.12c0.58,0.54,1.23,0.99,1.92,1.34
		C147.27-370.15,146.63-370.6,146.04-371.12z M237.29-505.5c-1.17-0.78-2.79-1.47-4.69-2.05c1.91,0.6,3.51,1.29,4.69,2.06
		c2.29,1.51,4.32,3.17,6.11,4.96C241.62-502.33,239.59-503.99,237.29-505.5z M256.66-383.37l-0.02-14.55l0.01,14.55
		c0.11,1.42,0.24,2.73,0.41,3.92C256.9-380.63,256.76-381.95,256.66-383.37z M257.06-379.44c0.16,1.18,0.35,2.24,0.61,3.2
		C257.42-377.2,257.23-378.26,257.06-379.44z M272.4-368.67c-1.5,0.06-2.84,0.09-4.06,0.04c0.46,0.02,0.95,0.04,1.46,0.04
		c0.82,0,1.67-0.02,2.59-0.06c0.06-0.01,0.12-0.01,0.19-0.01H272.4z M279.5-368.67c-0.22,0-0.52,0.01-0.88,0.01h0.88
		c1.9-0.05,2.91-0.06,3.62-0.06c0.52,0,0.86,0.01,1.28,0.01C283.44-368.74,282.83-368.75,279.5-368.67z M288.09-368.67
		c-1.45,0-2.31-0.01-2.93-0.02c0.62,0.02,1.49,0.04,2.93,0.04c0.45,0,0.89-0.01,1.33-0.06
		C288.98-368.69,288.54-368.67,288.09-368.67z M292.22-369.65c0.29-0.19,0.57-0.43,0.84-0.71
		C292.79-370.09,292.51-369.86,292.22-369.65z M292.2-369.65c-0.43,0.29-0.89,0.5-1.35,0.65
		C291.31-369.14,291.76-369.34,292.2-369.65z"/>
</g>
<g>
	<g>
		<path class="st4" d="M1645.04-503.04c-4.26-16.95-11.98-30.22-26.58-39.82c-15.05-9.91-34.66-8.41-52.67-8.68
			c-32.13-0.5-67.22-3.11-91.92,17.46c-4.78,3.98-9.14,8.57-12.29,13.94c-3.45,5.86-5.37,12.49-6.79,19.14
			c-3.53,16.61-1.64,33.19-1.88,50.17c-0.27,20.06,1.14,40.72,1.16,60.78c0.02,18.84-0.2,37.78-0.19,56.62
			c0.01,7.24,0.62,17.13,6.95,20.65c32.44,1.63,65.56-1.35,98,0.28c23.81,1.2,47.27,0,71.29,1.27c5.24,0.27,10.29-3.21,13.78-7.12
			c4.93-5.54,5.2-13.68,5.21-21.09c0.06-37.16,0.1-74.32,0.16-111.48C1649.3-468.4,1649.3-486.08,1645.04-503.04z M1610.43-443.27
			c-0.03,22.48-0.06,44.95-0.09,67.43c-0.01,4.49-0.17,9.41-3.16,12.76c-2.11,2.37-5.16,4.48-8.33,4.31
			c-14.53-0.77-28.72-0.05-43.13-0.77c-19.62-0.99-39.66,0.82-59.28-0.17c-3.82-2.13-4.19-8.12-4.21-12.49
			c-0.01-11.39,0.14-22.86,0.12-34.25c-0.01-12.14-0.87-24.63-0.7-36.77c0.14-10.27-1-20.3,1.13-30.34
			c0.86-4.02,2.03-8.04,4.11-11.58c1.9-3.24,4.53-6.03,7.42-8.43c14.94-12.43,36.17-10.86,55.61-10.56
			c10.89,0.17,22.76-0.74,31.86,5.26c8.83,5.8,13.5,13.83,16.07,24.09C1610.45-464.54,1610.45-453.84,1610.43-443.27z"/>
	</g>
	<g>
		<path class="st4" d="M1897.75-390.71c-0.02,18.84,0.21,37.78,0.19,56.62c-0.01,3.3,0.19,7.56-0.18,11.49
			c-0.5,5.3-5.02,9.33-10.34,9.37c-14.16,0.12-15.63,0.03-19.64,0c-6.09-0.04-8.42-3.63-8.25-10.61l-0.03-45.69
			c0.01-0.15,0.02-0.29,0.03-0.43c0.06-1,0.08-1.98,0.08-2.9c0.01-6.55-0.03-13.11-0.08-19.67c-0.01-2.44-0.02-4.87-0.03-7.3v-1.44
			c-0.01-1.95-0.01-3.89-0.01-5.84c0.01-12.14,0.87-24.63,0.7-36.78c-0.14-10.27,1-20.3-1.13-30.34c-0.87-4.03-2.03-8.04-4.12-11.59
			c-1.9-3.24-3.93-6.08-6.82-8.47c-4.2-3.5-8.51-5.95-13.54-7.57c-5.55-1.79-12.64-0.9-17.53,2.3c-4.41,2.91-7.79,6.36-10.38,10.38
			c-2.6,4.01-4.41,8.59-5.69,13.72c-1.7,6.73-2.28,13.66-2.47,20.62v0.01c-0.1,3.64-0.1,7.28-0.09,10.9
			c0.03,22.48,0.93,45.05,0.96,67.53l-0.9,52.84c0.17,11.65-5.6,11.11-12.68,11.36c-1.34,0.05-2.69,0.1-4.04,0.16
			c-0.85,0.04-1.71,0.08-2.57,0.13c-0.13,0.01-0.26,0.01-0.38,0c-0.86-0.04-1.72-0.08-2.58-0.13c-1.35-0.06-2.7-0.19-4.04-0.16
			c-14,0.3-12.01-10.67-12.01-17.76l-0.67-66.18c0.02-15.93,0.05-31.86,0.07-47.79c0.02-10.57,0.02-21.28-2.57-31.53
			c-1.28-5.13-3.09-9.7-5.69-13.72c-2.59-4.01-5.96-7.47-10.38-10.38c-4.89-3.2-11.97-4.09-17.53-2.3
			c-5.03,1.62-9.34,4.07-13.54,7.57c-2.89,2.39-4.91,5.23-6.82,8.47c-2.09,3.55-3.25,7.56-4.12,11.59
			c-2.13,10.05-0.99,20.07-1.13,30.34c-0.17,12.14,0.68,24.63,0.7,36.78c0,4.05-0.01,8.1-0.03,12.16
			c-0.03,7.37-0.1,14.74-0.09,22.09c0,0.94-0.68,27.17-0.61,28.2l0.7,23.61c0,4.15-3.39,7.65-7.54,7.78
			c-5.79,0.19-7.42,0.01-20.64,0.13c-2.68,0.02-6.39-1.55-8.13-3.58c-1.82-2.12-1.82-3.9-2.12-17.38
			c-0.42-18.83,0.22-37.78,0.19-56.62c-0.01-20.07-1.44-40.72-1.16-60.78c0.24-16.98-1.64-33.56,1.88-50.16
			c1.41-6.66,3.34-13.28,6.8-19.15c3.15-5.37,7.5-9.97,12.28-13.95c11.02-9.17,24.11-13.74,38.08-15.93
			c8.28-1.31,16.69-1.62,25.02-0.72c8.77,0.95,17.17,3.07,24.48,7.88c3.21,2.11,6.09,4.4,8.67,6.87c1.53,1.47,3.91,1.47,5.44,0
			c2.58-2.47,5.45-4.75,8.66-6.86c7.31-4.81,15.71-6.93,24.48-7.88c8.32-0.9,16.74-0.59,25.02,0.72
			c13.97,2.19,27.06,6.76,38.08,15.93c4.78,3.98,9.13,8.58,12.28,13.95c3.46,5.86,5.38,12.49,6.8,19.15
			c3.52,16.6,1.64,33.18,1.88,50.16C1899.19-431.44,1897.77-410.78,1897.75-390.71z"/>
	</g>
	<path class="st4" d="M1424.58-359.09c16.15,0.34,17.97,8.05,17.95,17.98c0,0.56,0,1.12,0,1.68c-0.01,7.41-0.27,15.55-5.21,21.1
		c-3.49,3.91-8.54,7.39-13.78,7.12c-24.03-1.27-47.47-0.07-71.29-1.27c-30.42-1.53-61.44,0.99-91.94-0.03
		c-5.84-0.2-12.2-4.23-13.43-9.94c-0.78-3.61-0.83-7.66-0.84-11.03c-0.01-18.84,0.31-37.72,0.29-56.55
		c-0.01-20.07-0.28-40.72,0-60.78c0.18-12.89-0.86-25.53,0.17-38.14v-0.02l-0.14-4.22c-0.4-12.11-0.11-32.05-0.32-45.3
		c-0.19-12.03,7.15-13.41,14.55-13.41h9.62c12.32,0,14.21,6.23,14.4,14.05c0.39,16.05,0.86,41.57,0.25,53.13
		c-0.13,1.39,0.13,21.07,0.08,22.46v0.05c-0.01,0.31-0.03,0.63-0.06,0.94v3.34c0.01,4.88,0.25,9.78,0.18,14.74
		c-0.17,12.14,0.68,24.63,0.7,36.78c0.01,11.39-0.14,22.85-0.13,34.24l0.01,3.89c0.02,4.82,3.98,8.78,8.8,8.82
		c18.56,0.16,33.96,1.35,52.04,2.26c11.05,0.55,24.62-2.05,35.66-1.88H1424.58z"/>
	<path class="st4" d="M2089.72-503.08c-4.25-16.95-11.97-30.22-26.58-39.82c-15.05-9.91-34.65-8.5-52.67-8.69
		c-34.07-0.38-55.81-3.1-80.51,17.46c-4.79,3.98-9.13,8.58-12.29,13.95c-3.44,5.86-5.37,12.49-6.78,19.15
		c-3.52,16.6-1.64,33.18-1.88,50.16c-0.27,20.06,1.14,40.71,1.15,60.78c0.02,18.84-0.21,37.78-0.19,56.62
		c0.01,5.15,0.33,11.65,2.79,16.24c1.47,2.75,4.37,4.45,7.49,4.55c6.5,0.21,18.38,0.49,24.05,0.26c7.14-0.3,8.15-4.66,8.13-22.91
		l0.18-21.07c-0.02-0.62,0.43-3.31,3.12-3.4l3.71,0.18c13.8,0.68,27.62,0.9,41.44,0.66l48.47-0.84c1.26,0,2.29,1.02,2.29,2.28
		l0.02,16.75l0.02,14.01c0.92,11.91,3.3,14.65,15.14,14.14c1.36-0.07,8.88,0.02,10.25,0c5.48-0.14,3.3,0,8.26,0
		c4.46,0,8.62-1.37,8.46-22.13c-0.28-37.15,0.1-79.06,0.16-116.21C2093.98-468.45,2093.98-486.13,2089.72-503.08z M2051.69-443.32
		c-0.03,20.33-0.06,40.68-0.08,61.01l0.01,9.14c0,1.26-1.02,2.29-2.29,2.29l0,0c-13.7,0.81-27.43,1.1-41.15,0.88l-53.56-0.88
		c-1.25,0-2.26-1-2.29-2.24c-0.22-11.74-0.47-26.86-0.48-33.37c-0.01-12.14-0.87-24.63-0.71-36.78c0.14-10.27-0.99-20.3,1.14-30.34
		c0.86-4.03,2.03-8.04,4.12-11.59c1.9-3.24,3.77-5.8,6.67-8.2c14.94-12.44,22.1-11.1,41.53-10.8c10.9,0.17,19.34-0.73,28.45,5.26
		c8.83,5.8,13.49,13.83,16.07,24.1C2051.72-464.6,2051.72-453.89,2051.69-443.32z"/>
	<path class="st4" d="M1316.15-533.54c-0.06,0.05-0.11,0.09-0.16,0.15c0.06-0.05,0.1-0.09,0.16-0.14c0.38-0.32,0.96-0.83,1.73-1.51
		C1317.11-534.38,1316.52-533.86,1316.15-533.54z M1333.41-465.65c0.08-1.27,0.18-2.53,0.32-3.8
		C1333.58-468.18,1333.48-466.91,1333.41-465.65z M1337.2-483.22c0.41-0.91,0.87-1.81,1.37-2.67
		C1338.05-485.02,1337.6-484.13,1337.2-483.22z M1361.23-551.65c-11.12,0.56-20.16,3.24-27.17,6.4c7.01-3.15,16.07-5.83,27.17-6.39
		c1.63-0.08,3.27-0.15,4.93-0.21C1364.5-551.8,1362.86-551.73,1361.23-551.65z M1409.56-372.43c0.07,0.05,0.15,0.08,0.22,0.11
		c0.23,0.11,0.47,0.22,0.71,0.32C1410.17-372.12,1409.85-372.26,1409.56-372.43z M1410.49-371.99c0.09,0.03,0.18,0.06,0.27,0.09
		c0.26,0.09,0.54,0.17,0.82,0.25C1411.2-371.74,1410.83-371.86,1410.49-371.99z M1442.25-473.33c0.1,2.71,0.17,5.43,0.22,8.14
		C1442.43-467.91,1442.36-470.62,1442.25-473.33z M1442.51-456.43v3.88c-0.01,2.86-0.01,5.42-0.02,7.71
		c0.02-2.29,0.02-4.85,0.03-7.71C1442.52-453.85,1442.52-455.13,1442.51-456.43z"/>
	<path class="st4" d="M1442.5-460.32c0-1.3,0-2.59-0.02-3.89c-0.01-0.33-0.01-0.65-0.01-0.98c-0.05-2.71-0.11-5.43-0.22-8.14
		c-0.02-0.55-0.05-1.08-0.07-1.63c-0.03-0.65-0.07-1.3-0.1-1.95c-0.06-1.05-0.11-2.1-0.19-3.15c-0.07-0.92-0.14-1.86-0.22-2.78
		c-0.16-1.86-0.34-3.73-0.57-5.59c-0.1-0.83-0.21-1.65-0.33-2.49c-0.57-4.16-1.35-8.29-2.37-12.38
		c-4.14-16.5-11.65-29.42-25.89-38.77c-1.49-0.98-3.02-1.87-4.6-2.68c-0.79-0.4-1.58-0.78-2.39-1.14c-0.4-0.18-0.81-0.36-1.22-0.54
		c-1.22-0.51-2.46-0.98-3.73-1.4c-2.6-0.89-5.28-1.6-8.01-2.16c-3.31-0.68-6.68-1.15-10.09-1.46c-1.12-0.1-2.23-0.18-3.35-0.24
		c-0.75-0.05-1.49-0.09-2.25-0.11c-1.9-0.08-3.81-0.11-5.7-0.11c-1.68,0-3.35,0.02-5.02,0.07c-1.65,0.06-3.3,0.13-4.93,0.21
		c-11.11,0.56-20.16,3.24-27.17,6.39c0,0,0,0.01-0.01,0.01c-5.58,2.51-9.88,5.33-12.91,7.61c-0.21,0.15-0.4,0.3-0.58,0.43
		c-0.81,0.63-1.51,1.2-2.11,1.71c-0.19,0.15-0.38,0.31-0.55,0.44c0,0,0,0.01-0.01,0.01c-0.78,0.67-1.36,1.19-1.73,1.51
		c-0.06,0.05-0.1,0.09-0.16,0.14c-0.06,0.05-0.11,0.09-0.17,0.15c-0.52,0.44-1.04,0.89-1.55,1.36c-0.51,0.44-1.02,0.91-1.51,1.39
		c-0.56,0.52-1.09,1.06-1.62,1.61c-2.66,2.71-5.04,5.67-6.97,8.94c-3.35,5.7-5.22,12.16-6.6,18.63c-0.86,4.04-1.33,8.24-1.56,12.6
		c-0.07,1.22-0.1,2.45-0.14,3.68c-0.02,1.2-0.03,2.41-0.03,3.63c0,2.76,0.06,5.58,0.16,8.42c0.05,1.41,0.1,2.84,0.16,4.28
		c0.03,0.73,0.06,1.46,0.09,2.19c0.29,6.52,0.6,13.19,0.62,19.93c0.01,5.07-0.01,10.15-0.03,15.22c-0.02,4.4-0.05,8.79-0.07,13.19
		c-0.05,8.44-0.09,16.88-0.09,25.3v1.41c0,1.25,0.02,2.59,0.09,3.96c0.14,2.75,0.46,5.61,1.19,8.21c0.09,0.33,0.19,0.65,0.3,0.96
		c0.32,0.95,0.7,1.86,1.14,2.69c0.18,0.33,0.38,0.65,0.6,0.96c0.23,0.3,0.47,0.58,0.72,0.84c0.13,0.14,0.26,0.27,0.4,0.39
		c0.55,0.49,1.15,0.91,1.8,1.25c1.15,0.59,2.44,0.94,3.77,0.98c0.58,0.02,1.17,0.03,1.78,0.06c4.25,0.14,9.12,0.29,13.38,0.29
		c0.89,0,1.76-0.01,2.58-0.02c0.81-0.01,1.58-0.03,2.31-0.07h0.03c2.16-0.09,3.73-0.56,4.88-1.69c0.13-0.1,0.23-0.23,0.34-0.35
		c2.29-2.69,2.71-8.53,2.7-20.25c0,0-0.03-0.32-0.09-0.97c-0.01-0.16-0.02-0.32-0.03-0.51c0-0.03-0.01-0.07-0.01-0.11
		c-0.02-0.35-0.06-0.78-0.09-1.27c0-0.17-0.01-0.36-0.02-0.55c-0.02-0.3-0.03-0.62-0.05-0.95c0-0.05-0.01-0.1-0.01-0.16
		c-0.01-0.24-0.02-0.49-0.03-0.75c0,0,0-0.01,0-0.02c0-1.74,1.41-3.19,3.18-3.19h63.95c1.76,0,3.18,1.43,3.18,3.18
		c0,0.01,0,0.01,0,0.01l0.02,13.63c0.1,1.33,0.23,2.57,0.38,3.67c0,0,0,0,0,0.01c0.16,1.11,0.34,2.1,0.57,3v0.01
		c0.11,0.44,0.24,0.87,0.38,1.27c0.14,0.4,0.29,0.79,0.44,1.14c0.17,0.35,0.34,0.67,0.54,0.98c0.19,0.31,0.41,0.58,0.63,0.86
		c0.1,0.14,0.23,0.26,0.35,0.39c0.24,0.24,0.49,0.46,0.76,0.66c0,0.01,0,0.01,0.01,0.01c0.13,0.09,0.25,0.18,0.39,0.26
		c0.14,0.09,0.29,0.16,0.43,0.24c0.07,0.05,0.15,0.08,0.22,0.11c0.23,0.11,0.47,0.22,0.71,0.32c0.09,0.03,0.18,0.06,0.27,0.09
		c0.26,0.09,0.54,0.17,0.82,0.25c0.07,0.02,0.15,0.05,0.23,0.06c0.36,0.09,0.74,0.17,1.14,0.23c0.01,0,0.03,0,0.05,0.01
		c0.24,0.03,0.48,0.07,0.74,0.09l0.67,0.06c0.18,0.02,0.36,0.03,0.55,0.05l0.67,0.03c1.14,0.05,2.39,0.02,3.8-0.03h0.29
		c0.17-0.01,0.38-0.01,0.6-0.01h0.55c0.83,0,1.84,0.01,2.76,0.01c0.59,0.01,1.16,0.01,1.63,0.01c0.33,0,0.62-0.01,0.82-0.01
		c3.11-0.07,3.68-0.06,4.58-0.03c0.06,0,0.13,0.01,0.19,0c0.15,0.01,0.32,0.01,0.51,0.01c0.58,0.01,1.39,0.02,2.75,0.02
		c0.42,0,0.83-0.01,1.24-0.05c0.15-0.01,0.31-0.03,0.46-0.06c0.3-0.05,0.59-0.11,0.89-0.21c0.43-0.14,0.87-0.33,1.27-0.6
		c0,0,0,0.01,0.01,0c0.27-0.19,0.54-0.41,0.79-0.66c2.19-2.22,3.69-7.51,3.59-19.97c-0.17-21.19-0.1-25.68-0.01-33.04
		c0-0.44,0.01-0.89,0.01-1.36c0.03-2.29,0.06-4.93,0.08-8.4c0.01-0.47,0.01-0.95,0.01-1.44c0.01-1.24,0.02-2.59,0.02-4.05
		c0-1.2,0.01-2.49,0.01-3.87c0.01-2.29,0.01-4.85,0.02-7.71v-3.88C1442.51-457.73,1442.51-459.02,1442.5-460.32z M1404.7-445.11
		c-0.01,9.34-0.02,20.23-0.03,29.14c0,1.76-1.43,3.17-3.18,3.17h-64.26c-1.71,0-3.08-1.32-3.17-3.01c0-0.03,0-0.08-0.01-0.11
		c-0.05-2.14-0.1-4.3-0.17-6.45c-0.06-2.16-0.14-4.32-0.21-6.49c0-0.27-0.01-0.55-0.02-0.82c-0.08-2.74-0.15-5.46-0.18-8.19
		c-0.03-2.41-0.05-4.8-0.01-7.18c0.01-0.62,0.01-1.23,0.01-1.86c0-2.16-0.05-4.3-0.09-6.43c-0.02-1.11-0.06-2.21-0.07-3.33
		c-0.01-0.98-0.02-1.96-0.03-2.94c0-0.97,0.01-1.95,0.03-2.93c0-0.11,0-0.22,0.01-0.33c0.01-0.8,0.03-1.6,0.08-2.38
		c0.01-0.13,0.01-0.25,0.02-0.38c0.07-1.27,0.17-2.53,0.32-3.8c0.05-0.42,0.1-0.84,0.16-1.27c0.17-1.3,0.39-2.6,0.66-3.9
		c0.21-0.98,0.43-1.96,0.7-2.93c0.13-0.49,0.26-0.97,0.41-1.45c0.22-0.72,0.44-1.44,0.7-2.14c0.25-0.71,0.54-1.4,0.84-2.09
		c0.4-0.91,0.86-1.8,1.37-2.67c1.85-3.16,4.4-5.87,7.23-8.21c0,0,5.27-5.93,13.15-7.85c3.06-0.74,6.44-1.07,9.81-1.07
		c3.65,0,7.26,0.39,10.39,1.05c0.39,0.08,0.78,0.17,1.14,0.26c0.65,0.16,1.28,0.32,1.87,0.51c0.01,0,0.01,0,0.01,0
		c1.78,0.54,3.3,1.19,4.39,1.92c2.16,1.41,4.05,2.96,5.72,4.65c5.02,5.05,8.04,11.32,9.92,18.82
		C1404.72-465.83,1404.72-455.4,1404.7-445.11z M1433.39-452.57c-0.02,15.26-0.1,21.8-0.17,27.06c-0.08,7.18-0.15,11.93,0.02,32.89
		c0.06,6.9-0.43,10.53-0.83,12.34c-0.68-0.01-1.11-0.02-1.46-0.02c-0.48-0.02-0.88-0.02-1.48-0.02c-0.79,0-1.87,0.01-3.61,0.06
		h-0.59c-0.56,0-1.25,0-1.97-0.01c-0.83,0-1.69-0.01-2.42-0.01c-0.82,0-1.39,0.01-1.84,0.02c-0.74,0.03-1.43,0.06-2.03,0.06
		c-1.21,0-2.01-0.07-2.51-0.14c-0.19-0.75-0.47-2.21-0.7-4.94l-0.01-13.26c0-0.27,0-26.98,0.03-46.54
		c0.02-10.21,0.05-21.78-2.77-32.94c-3.3-13.11-9.49-22.28-19.49-28.86c-5.88-3.87-15.63-5.25-22.81-5.25
		c-4.31,0-8.34,0.46-11.96,1.33c-9.07,2.2-15.36,8.08-17.26,10.06c-3.72,3.15-6.68,6.59-8.83,10.23c-2.93,4.99-4.3,10.39-5.06,14.01
		c-1.72,8.07-1.55,15.81-1.39,23.27c0.06,2.77,0.11,5.39,0.08,8.05c-0.09,6.67,0.13,13.43,0.34,19.99
		c0.16,5.27,0.34,10.72,0.34,15.94c0.01,9.5,0.41,14.78,0.56,16.42c0,2.9-0.02,9.42-0.51,12.79c-0.96,0.02-2.03,0.03-3.22,0.03
		c-4.61,0-10.09-0.18-14.6-0.33c-1.44-3.12-1.45-9.12-1.45-11.13c-0.01-8.93,0.05-18.05,0.09-26.87c0.06-9.27,0.1-18.85,0.09-28.27
		c0-6.28-0.27-12.45-0.54-18.43c-0.55-12.56-1.07-24.4,1.05-34.39c1.49-7.01,3.2-11.93,5.55-15.92c2.19-3.73,5.46-7.41,9.99-11.23
		c0.19-0.17,0.44-0.38,0.73-0.63c10.8-9.43,23.89-14.58,38.92-15.34c3.47-0.17,6.57-0.26,9.49-0.26c8.07,0,15,0.66,20.98,2.04
		c5.99,1.37,11.03,3.46,15.35,6.31c11.32,7.43,18.12,17.73,22.04,33.37C1433.43-485.58,1433.41-468.8,1433.39-452.57z"/>
	<g>
		<path class="st4" d="M1605.75-289.62c1.97,0,3.99,0.3,6.05,0.88v3.75c-1.83-1.6-3.84-2.4-6.02-2.4c-2.38,0-4.21,1.02-5.5,3.06
			c-1.29,2.04-1.93,4.62-1.93,7.76c0,3.15,0.64,5.73,1.93,7.77c1.29,2.03,3.12,3.05,5.5,3.05c2.16,0,4.16-0.81,6.02-2.42v3.78
			c-2.06,0.55-4.08,0.83-6.05,0.83c-3.78,0-6.83-1.24-9.16-3.73s-3.5-5.58-3.5-9.28c0-3.69,1.18-6.78,3.53-9.29
			C1598.97-288.37,1602.02-289.62,1605.75-289.62z"/>
		<path class="st4" d="M1641.43-285.8c2.33,2.52,3.5,5.57,3.5,9.15s-1.17,6.64-3.5,9.19c-2.34,2.54-5.16,3.82-8.46,3.82
			c-3.3,0-6.12-1.27-8.45-3.82s-3.5-5.61-3.5-9.19s1.17-6.64,3.5-9.16s5.15-3.79,8.45-3.79
			C1636.26-289.6,1639.09-288.34,1641.43-285.8z M1628.26-284.16c-1.29,2.07-1.93,4.58-1.93,7.51c0,2.94,0.64,5.46,1.93,7.54
			c1.29,2.09,2.86,3.13,4.71,3.13c1.84,0,3.41-1.04,4.71-3.13c1.3-2.08,1.95-4.6,1.95-7.54c0-2.93-0.65-5.44-1.95-7.51
			s-2.87-3.11-4.71-3.11C1631.12-287.27,1629.55-286.23,1628.26-284.16z"/>
		<path class="st4" d="M1654.83-289.27h15.51l0.24,3.09c-0.7-0.74-2.27-1.11-4.73-1.11h-6.45v8.61h7.53l0.24,3.09
			c-0.7-0.74-2.27-1.11-4.73-1.11h-3.04v12.72h-4.57V-289.27z"/>
		<path class="st4" d="M1680.15-289.27h15.51l0.24,3.09c-0.7-0.74-2.27-1.11-4.73-1.11h-6.45v8.61h7.53l0.24,3.09
			c-0.7-0.74-2.27-1.11-4.73-1.11h-3.04v12.72h-4.57V-289.27z"/>
		<path class="st4" d="M1705.46-289.27h15.01l0.24,3.09c-0.7-0.74-2.27-1.11-4.73-1.11h-5.95v8.61h7.55l0.24,3.09
			c-0.69-0.74-2.27-1.11-4.73-1.11h-3.06v10.74h6.47c2.48,0,4.06-0.36,4.73-1.08l-0.24,3.06h-15.53V-289.27z"/>
		<path class="st4" d="M1731.14-289.27h15.01l0.24,3.09c-0.7-0.74-2.27-1.11-4.73-1.11h-5.95v8.61h7.55l0.24,3.09
			c-0.69-0.74-2.27-1.11-4.73-1.11h-3.06v10.74h6.47c2.48,0,4.06-0.36,4.73-1.08l-0.24,3.06h-15.53V-289.27z"/>
	</g>
	<path class="st4" d="M1296.87-446.59c-0.01-6.74-0.33-13.41-0.62-19.93c0.27,6.52,0.59,13.21,0.6,19.94
		c0.01,5.06,0,10.14-0.02,15.21C1296.85-436.44,1296.88-441.52,1296.87-446.59z M1298.25-378.33c0.31,0.95,0.68,1.86,1.14,2.69
		C1298.94-376.47,1298.56-377.39,1298.25-378.33z M1301.11-373.45c0.55,0.5,1.15,0.92,1.8,1.25
		C1302.26-372.54,1301.65-372.96,1301.11-373.45z M1386.55-499.28c-1.09-0.73-2.61-1.38-4.39-1.92c1.79,0.56,3.28,1.21,4.39,1.93
		c2.14,1.41,4.05,2.96,5.72,4.64C1390.6-496.31,1388.71-497.86,1386.55-499.28z M1404.68-384.92l-0.02-13.63l0.01,13.63
		c0.1,1.33,0.23,2.55,0.39,3.67C1404.91-382.36,1404.79-383.59,1404.68-384.92z M1405.06-381.24c0.15,1.11,0.33,2.1,0.57,3
		C1405.4-379.14,1405.22-380.13,1405.06-381.24z M1419.43-371.16c-1.4,0.06-2.66,0.08-3.8,0.03c0.43,0.02,0.89,0.03,1.37,0.03
		c0.76,0,1.56-0.02,2.43-0.06c0.06-0.01,0.11-0.01,0.18-0.01H1419.43z M1426.08-371.16c-0.21,0-0.49,0.01-0.82,0.01h0.82
		c1.78-0.05,2.73-0.06,3.39-0.06c0.49,0,0.81,0.01,1.2,0.01C1429.76-371.22,1429.19-371.23,1426.08-371.16z M1434.12-371.16
		c-1.36,0-2.17-0.01-2.75-0.02c0.58,0.02,1.39,0.03,2.75,0.03c0.42,0,0.83-0.01,1.24-0.06
		C1434.95-371.17,1434.54-371.16,1434.12-371.16z M1437.98-372.07c0.27-0.18,0.54-0.4,0.79-0.66
		C1438.52-372.48,1438.26-372.27,1437.98-372.07z M1437.97-372.07c-0.4,0.27-0.83,0.47-1.27,0.6
		C1437.14-371.59,1437.56-371.79,1437.97-372.07z"/>
</g>
<g>
	<path class="st4" d="M1833.84,687.87c32.95,0.7,36.66,16.43,36.63,36.68c0,1.14,0,2.29-0.01,3.43
		c-0.02,15.12-0.56,31.74-10.63,43.05c-7.12,7.98-17.43,15.08-28.11,14.52c-49.03-2.58-96.87-0.14-145.47-2.58
		c-62.08-3.12-125.37,2.03-187.6-0.07c-11.91-0.4-24.89-8.64-27.4-20.28c-1.59-7.36-1.7-15.63-1.71-22.5
		c-0.02-38.44,0.64-76.96,0.59-115.4c-0.02-40.95-0.56-83.09,0-124.02c0.37-26.29-1.75-52.1,0.35-77.83v-0.05l-0.28-8.61
		c-0.82-24.7-0.22-65.39-0.66-92.43c-0.4-24.55,14.58-27.35,29.69-27.35h19.62c25.14,0.01,28.99,12.71,29.38,28.66
		c0.8,32.74,1.76,84.82,0.52,108.41c-0.26,2.84,0.26,42.99,0.17,45.83v0.09c-0.02,0.63-0.07,1.28-0.12,1.91v6.82
		c0.02,9.96,0.51,19.96,0.37,30.09c-0.35,24.78,1.4,50.26,1.42,75.04c0.02,23.25-0.28,46.63-0.26,69.88l0.03,7.94
		c0.03,9.83,8.12,17.92,17.96,18.01c37.88,0.32,69.29,2.75,106.18,4.62c22.55,1.12,50.23-4.18,72.76-3.83H1833.84z"/>
	<path class="st4" d="M1612.58,331.91c-0.12,0.09-0.23,0.19-0.33,0.3c0.12-0.09,0.21-0.19,0.33-0.28c0.77-0.65,1.95-1.7,3.54-3.07
		C1614.54,330.21,1613.35,331.25,1612.58,331.91z M1647.81,470.45c0.16-2.58,0.37-5.17,0.65-7.75
		C1648.16,465.28,1647.95,467.86,1647.81,470.45z M1655.54,434.59c0.84-1.86,1.77-3.7,2.79-5.44
		C1657.28,430.91,1656.35,432.73,1655.54,434.59z M1704.56,294.95c-22.69,1.14-41.14,6.61-55.45,13.05
		c14.31-6.42,32.79-11.89,55.45-13.03c3.33-0.16,6.68-0.3,10.05-0.42C1711.24,294.65,1707.89,294.79,1704.56,294.95z M1803.2,660.67
		c0.14,0.09,0.3,0.16,0.44,0.23c0.47,0.23,0.95,0.44,1.44,0.65C1804.43,661.29,1803.78,661.01,1803.2,660.67z M1805.08,661.55
		c0.19,0.07,0.37,0.12,0.56,0.19c0.54,0.19,1.09,0.35,1.68,0.51C1806.52,662.06,1805.78,661.83,1805.08,661.55z M1869.88,454.76
		c0.21,5.54,0.35,11.08,0.44,16.61C1870.26,465.84,1870.12,460.3,1869.88,454.76z M1870.42,489.25v7.91
		c-0.02,5.84-0.02,11.05-0.05,15.73c0.05-4.68,0.05-9.89,0.07-15.73C1870.44,494.53,1870.44,491.9,1870.42,489.25z"/>
	<path class="st4" d="M1870.4,481.31c0-2.65,0-5.28-0.05-7.93c-0.02-0.67-0.02-1.33-0.02-2c-0.09-5.54-0.23-11.08-0.44-16.61
		c-0.05-1.12-0.09-2.21-0.14-3.33c-0.07-1.33-0.14-2.65-0.21-3.98c-0.12-2.14-0.23-4.28-0.4-6.42c-0.14-1.88-0.28-3.79-0.44-5.68
		c-0.33-3.79-0.7-7.61-1.16-11.4c-0.21-1.7-0.42-3.37-0.67-5.07c-1.16-8.49-2.75-16.92-4.84-25.27
		c-8.45-33.67-23.78-60.03-52.82-79.11c-3.05-2-6.17-3.82-9.38-5.47c-1.61-0.81-3.23-1.58-4.89-2.33c-0.81-0.37-1.65-0.74-2.49-1.09
		c-2.49-1.05-5.03-2-7.61-2.86c-5.31-1.81-10.77-3.26-16.33-4.4c-6.75-1.4-13.64-2.35-20.59-2.98c-2.28-0.21-4.56-0.37-6.84-0.49
		c-1.54-0.09-3.05-0.19-4.58-0.23c-3.89-0.16-7.77-0.23-11.63-0.23c-3.42,0-6.84,0.05-10.24,0.14c-3.37,0.12-6.72,0.26-10.05,0.42
		c-22.66,1.14-41.14,6.61-55.45,13.03c0,0,0,0.02-0.02,0.02c-11.38,5.12-20.15,10.87-26.34,15.52c-0.42,0.3-0.81,0.6-1.19,0.88
		c-1.65,1.28-3.07,2.44-4.3,3.49c-0.4,0.3-0.77,0.63-1.12,0.91c0,0,0,0.02-0.02,0.02c-1.58,1.37-2.77,2.42-3.54,3.07
		c-0.12,0.09-0.21,0.19-0.33,0.28c-0.12,0.09-0.23,0.19-0.35,0.3c-1.07,0.91-2.12,1.81-3.16,2.77c-1.05,0.91-2.07,1.86-3.07,2.84
		c-1.14,1.07-2.23,2.16-3.3,3.28c-5.42,5.54-10.28,11.56-14.22,18.24c-6.84,11.63-10.66,24.8-13.47,38.02
		c-1.75,8.24-2.72,16.82-3.19,25.71c-0.14,2.49-0.21,5-0.28,7.52c-0.05,2.44-0.07,4.91-0.07,7.4c0,5.63,0.12,11.38,0.33,17.17
		c0.09,2.89,0.21,5.79,0.33,8.73c0.07,1.49,0.12,2.98,0.19,4.47c0.58,13.31,1.23,26.92,1.26,40.67c0.02,10.35-0.02,20.71-0.07,31.06
		c-0.05,8.98-0.09,17.94-0.14,26.92c-0.09,17.22-0.19,34.44-0.19,51.63v2.89c0,2.56,0.05,5.28,0.19,8.07
		c0.28,5.61,0.93,11.45,2.42,16.75c0.19,0.67,0.4,1.33,0.6,1.95c0.65,1.93,1.42,3.79,2.33,5.49c0.37,0.67,0.77,1.33,1.23,1.95
		c0.47,0.61,0.95,1.19,1.47,1.72c0.26,0.28,0.54,0.56,0.81,0.79c1.12,1,2.35,1.86,3.68,2.56c2.35,1.21,4.98,1.91,7.7,2
		c1.19,0.05,2.4,0.07,3.63,0.12c8.68,0.28,18.61,0.58,27.29,0.58c1.82,0,3.58-0.02,5.26-0.05c1.65-0.02,3.23-0.07,4.72-0.14h0.07
		c4.4-0.19,7.61-1.14,9.96-3.44c0.26-0.21,0.47-0.47,0.7-0.72c4.68-5.49,5.54-17.4,5.51-41.32c0,0-0.07-0.65-0.19-1.98
		c-0.02-0.33-0.05-0.65-0.07-1.05c0-0.07-0.02-0.14-0.02-0.23c-0.05-0.72-0.12-1.58-0.19-2.58c0-0.35-0.02-0.74-0.05-1.12
		c-0.05-0.6-0.07-1.26-0.09-1.93c0-0.09-0.02-0.21-0.02-0.33c-0.02-0.49-0.05-1-0.07-1.54c0,0,0-0.02,0-0.05
		c0-3.56,2.89-6.52,6.49-6.52h130.49c3.58,0,6.49,2.91,6.49,6.49c0,0.02,0,0.02,0,0.02l0.05,27.81c0.21,2.72,0.47,5.24,0.77,7.49
		c0,0,0,0,0,0.02c0.33,2.26,0.7,4.28,1.16,6.12v0.02c0.23,0.91,0.49,1.77,0.77,2.58c0.28,0.81,0.58,1.61,0.91,2.33
		c0.35,0.72,0.7,1.37,1.09,2s0.84,1.19,1.28,1.75c0.21,0.28,0.47,0.54,0.72,0.79c0.49,0.49,1,0.93,1.56,1.35
		c0,0.02,0,0.02,0.02,0.02c0.26,0.19,0.51,0.37,0.79,0.54c0.28,0.19,0.58,0.33,0.88,0.49c0.14,0.09,0.3,0.16,0.44,0.23
		c0.47,0.23,0.95,0.44,1.44,0.65c0.19,0.07,0.37,0.12,0.56,0.19c0.54,0.19,1.09,0.35,1.68,0.51c0.14,0.05,0.3,0.09,0.47,0.12
		c0.74,0.19,1.51,0.35,2.33,0.47c0.02,0,0.07,0,0.09,0.02c0.49,0.07,0.98,0.14,1.51,0.19l1.37,0.12c0.37,0.05,0.74,0.07,1.12,0.09
		l1.37,0.07c2.33,0.09,4.89,0.05,7.75-0.07h0.58c0.35-0.02,0.77-0.02,1.23-0.02h1.12c1.7,0,3.75,0.02,5.63,0.02
		c1.21,0.02,2.37,0.02,3.33,0.02c0.67,0,1.26-0.02,1.68-0.02c6.35-0.14,7.52-0.12,9.35-0.07c0.12,0,0.26,0.02,0.4,0
		c0.3,0.02,0.65,0.02,1.05,0.02c1.19,0.02,2.84,0.05,5.61,0.05c0.86,0,1.7-0.02,2.54-0.09c0.3-0.02,0.63-0.07,0.93-0.12
		c0.6-0.09,1.21-0.23,1.81-0.42c0.88-0.28,1.77-0.67,2.58-1.23c0,0,0,0.02,0.02,0c0.56-0.4,1.09-0.84,1.61-1.35
		c4.47-4.54,7.54-15.33,7.33-40.74c-0.35-43.23-0.21-52.4-0.02-67.41c0-0.91,0.02-1.81,0.02-2.77c0.07-4.68,0.12-10.05,0.16-17.15
		c0.02-0.95,0.02-1.93,0.02-2.93c0.02-2.54,0.05-5.28,0.05-8.26c0-2.44,0.02-5.07,0.02-7.89c0.02-4.68,0.02-9.89,0.05-15.73v-7.91
		C1870.42,486.59,1870.42,483.96,1870.4,481.31z M1793.26,512.35c-0.02,19.06-0.05,41.28-0.07,59.45c0,3.58-2.91,6.47-6.49,6.47
		h-131.12c-3.49,0-6.28-2.7-6.47-6.14c0-0.07,0-0.16-0.02-0.23c-0.09-4.37-0.21-8.77-0.35-13.17c-0.12-4.4-0.28-8.82-0.42-13.24
		c0-0.56-0.02-1.12-0.05-1.68c-0.16-5.58-0.3-11.15-0.37-16.71c-0.07-4.91-0.09-9.8-0.02-14.66c0.02-1.26,0.02-2.51,0.02-3.79
		c0-4.4-0.09-8.77-0.19-13.12c-0.05-2.26-0.12-4.51-0.14-6.79c-0.02-2-0.05-4-0.07-6c0-1.98,0.02-3.98,0.07-5.98
		c0-0.23,0-0.44,0.02-0.67c0.02-1.63,0.07-3.26,0.16-4.86c0.02-0.26,0.02-0.51,0.05-0.77c0.14-2.58,0.35-5.17,0.65-7.75
		c0.09-0.86,0.21-1.72,0.33-2.58c0.35-2.65,0.79-5.31,1.35-7.96c0.42-2,0.88-4,1.42-5.98c0.26-1,0.54-1.98,0.84-2.96
		c0.44-1.47,0.91-2.93,1.42-4.37c0.51-1.44,1.09-2.86,1.72-4.26c0.81-1.86,1.75-3.68,2.79-5.44c3.77-6.45,8.98-11.98,14.75-16.75
		c0,0,10.75-12.1,26.83-16.01c6.24-1.51,13.15-2.19,20.01-2.19c7.45,0,14.82,0.79,21.2,2.14c0.79,0.16,1.58,0.35,2.33,0.54
		c1.33,0.33,2.61,0.65,3.82,1.05c0.02,0,0.02,0,0.02,0c3.63,1.09,6.72,2.42,8.96,3.91c4.4,2.89,8.26,6.05,11.68,9.49
		c10.24,10.31,16.4,23.11,20.24,38.39C1793.31,470.07,1793.31,491.36,1793.26,512.35z M1851.81,497.13
		c-0.05,31.13-0.21,44.49-0.35,55.22c-0.16,14.66-0.3,24.34,0.05,67.11c0.12,14.08-0.88,21.48-1.7,25.18
		c-1.4-0.02-2.26-0.05-2.98-0.05c-0.98-0.05-1.79-0.05-3.02-0.05c-1.61,0-3.82,0.02-7.38,0.12h-1.21c-1.14,0-2.56,0-4.03-0.02
		c-1.7,0-3.44-0.02-4.93-0.02c-1.68,0-2.84,0.02-3.75,0.05c-1.51,0.07-2.91,0.12-4.14,0.12c-2.47,0-4.1-0.14-5.12-0.28
		c-0.4-1.54-0.95-4.51-1.42-10.08l-0.02-27.06c0-0.56,0-55.05,0.07-94.96c0.05-20.83,0.09-44.44-5.65-67.22
		c-6.72-26.76-19.36-45.47-39.77-58.89c-12.01-7.89-31.9-10.7-46.54-10.7c-8.8,0-17.01,0.93-24.41,2.72
		c-18.5,4.49-31.34,16.5-35.23,20.52c-7.59,6.42-13.64,13.45-18.01,20.87c-5.98,10.19-8.77,21.2-10.33,28.6
		c-3.51,16.47-3.16,32.25-2.84,47.49c0.12,5.65,0.23,11.01,0.16,16.43c-0.19,13.61,0.26,27.41,0.7,40.79
		c0.33,10.75,0.7,21.87,0.7,32.53c0.02,19.38,0.84,30.16,1.14,33.51c0,5.91-0.05,19.22-1.05,26.11c-1.95,0.05-4.14,0.07-6.56,0.07
		c-9.4,0-20.59-0.37-29.78-0.67c-2.93-6.38-2.96-18.61-2.96-22.71c-0.02-18.22,0.09-36.83,0.19-54.82
		c0.12-18.92,0.21-38.46,0.19-57.68c0-12.82-0.56-25.41-1.09-37.6c-1.12-25.62-2.19-49.79,2.14-70.18
		c3.05-14.31,6.54-24.34,11.33-32.48c4.47-7.61,11.15-15.12,20.38-22.92c0.4-0.35,0.91-0.77,1.49-1.28
		c22.04-19.24,48.75-29.76,79.42-31.3c7.07-0.35,13.4-0.54,19.36-0.54c16.47,0,30.6,1.35,42.81,4.17
		c12.22,2.79,22.5,7.05,31.32,12.87c23.11,15.17,36.97,36.18,44.98,68.08C1851.9,429.77,1851.85,464.02,1851.81,497.13z"/>
	<path class="st4" d="M1573.23,509.33c-0.02-13.75-0.67-27.36-1.26-40.67c0.56,13.31,1.21,26.94,1.23,40.7
		c0.02,10.33,0,20.69-0.05,31.04C1573.21,530.04,1573.26,519.68,1573.23,509.33z M1576.05,648.61c0.63,1.93,1.4,3.79,2.33,5.49
		C1577.47,652.41,1576.7,650.54,1576.05,648.61z M1581.89,658.57c1.12,1.02,2.35,1.88,3.68,2.56
		C1584.24,660.43,1583.01,659.57,1581.89,658.57z M1756.24,401.83c-2.23-1.49-5.33-2.82-8.96-3.91c3.65,1.14,6.7,2.47,8.96,3.93
		c4.37,2.89,8.26,6.05,11.68,9.47C1764.5,407.88,1760.64,404.71,1756.24,401.83z M1793.24,635.16l-0.05-27.81l0.02,27.81
		c0.21,2.72,0.47,5.21,0.79,7.49C1793.7,640.4,1793.45,637.89,1793.24,635.16z M1794.01,642.68c0.3,2.26,0.67,4.28,1.16,6.12
		C1794.7,646.96,1794.33,644.94,1794.01,642.68z M1823.32,663.25c-2.86,0.12-5.42,0.16-7.75,0.07c0.88,0.05,1.82,0.07,2.79,0.07
		c1.56,0,3.19-0.05,4.96-0.12c0.12-0.02,0.23-0.02,0.37-0.02H1823.32z M1836.89,663.25c-0.42,0-1,0.02-1.68,0.02h1.68
		c3.63-0.09,5.56-0.12,6.91-0.12c1,0,1.65,0.02,2.44,0.02C1844.41,663.13,1843.24,663.11,1836.89,663.25z M1853.29,663.25
		c-2.77,0-4.42-0.02-5.61-0.05c1.19,0.05,2.84,0.07,5.61,0.07c0.86,0,1.7-0.02,2.54-0.12
		C1854.99,663.22,1854.16,663.25,1853.29,663.25z M1861.18,661.39c0.56-0.37,1.09-0.81,1.61-1.35
		C1862.28,660.55,1861.74,660.99,1861.18,661.39z M1861.16,661.39c-0.81,0.56-1.7,0.95-2.58,1.23
		C1859.46,662.36,1860.32,661.97,1861.16,661.39z"/>
</g>
<g>
	<path class="st2" d="M703.84,687.87c32.95,0.7,36.66,16.43,36.63,36.68c0,1.14,0,2.29-0.01,3.43
		c-0.02,15.12-0.56,31.74-10.63,43.05c-7.12,7.98-17.43,15.08-28.11,14.52c-49.03-2.58-96.87-0.14-145.47-2.58
		c-62.08-3.12-125.37,2.03-187.6-0.07c-11.91-0.4-24.89-8.64-27.4-20.28c-1.59-7.36-1.7-15.63-1.71-22.5
		c-0.02-38.44,0.64-76.96,0.59-115.4c-0.02-40.95-0.56-83.09,0-124.02c0.37-26.29-1.75-52.1,0.35-77.83v-0.05l-0.28-8.61
		c-0.82-24.7-0.22-65.39-0.66-92.43c-0.4-24.55,14.58-27.35,29.69-27.35h19.62c25.14,0.01,28.99,12.71,29.38,28.66
		c0.8,32.74,1.76,84.82,0.52,108.41c-0.26,2.84,0.26,42.99,0.17,45.83v0.09c-0.02,0.63-0.07,1.28-0.12,1.91v6.82
		c0.02,9.96,0.51,19.96,0.37,30.09c-0.35,24.78,1.4,50.26,1.42,75.04c0.02,23.25-0.28,46.63-0.26,69.88l0.03,7.94
		c0.03,9.83,8.12,17.92,17.96,18.01c37.88,0.32,69.29,2.75,106.18,4.62c22.55,1.12,50.23-4.18,72.76-3.83H703.84z"/>
	<path class="st2" d="M482.58,331.91c-0.12,0.09-0.23,0.19-0.33,0.3c0.12-0.09,0.21-0.19,0.33-0.28c0.77-0.65,1.95-1.7,3.54-3.07
		C484.54,330.21,483.35,331.25,482.58,331.91z M517.81,470.45c0.16-2.58,0.37-5.17,0.65-7.75
		C518.16,465.28,517.95,467.86,517.81,470.45z M525.54,434.59c0.84-1.86,1.77-3.7,2.79-5.44
		C527.28,430.91,526.35,432.73,525.54,434.59z M574.56,294.95c-22.69,1.14-41.14,6.61-55.45,13.05
		c14.31-6.42,32.79-11.89,55.45-13.03c3.33-0.16,6.68-0.3,10.05-0.42C581.24,294.65,577.89,294.79,574.56,294.95z M673.2,660.67
		c0.14,0.09,0.3,0.16,0.44,0.23c0.47,0.23,0.95,0.44,1.44,0.65C674.43,661.29,673.78,661.01,673.2,660.67z M675.08,661.55
		c0.19,0.07,0.37,0.12,0.56,0.19c0.54,0.19,1.09,0.35,1.68,0.51C676.52,662.06,675.78,661.83,675.08,661.55z M739.88,454.76
		c0.21,5.54,0.35,11.08,0.44,16.61C740.26,465.84,740.12,460.3,739.88,454.76z M740.42,489.25v7.91
		c-0.02,5.84-0.02,11.05-0.05,15.73c0.05-4.68,0.05-9.89,0.07-15.73C740.44,494.53,740.44,491.9,740.42,489.25z"/>
	<path class="st2" d="M740.4,481.31c0-2.65,0-5.28-0.05-7.93c-0.02-0.67-0.02-1.33-0.02-2c-0.09-5.54-0.23-11.08-0.44-16.61
		c-0.05-1.12-0.09-2.21-0.14-3.33c-0.07-1.33-0.14-2.65-0.21-3.98c-0.12-2.14-0.23-4.28-0.4-6.42c-0.14-1.88-0.28-3.79-0.44-5.68
		c-0.33-3.79-0.7-7.61-1.16-11.4c-0.21-1.7-0.42-3.37-0.67-5.07c-1.16-8.49-2.75-16.92-4.84-25.27
		c-8.45-33.67-23.78-60.03-52.82-79.11c-3.05-2-6.17-3.82-9.38-5.47c-1.61-0.81-3.23-1.58-4.89-2.33c-0.81-0.37-1.65-0.74-2.49-1.09
		c-2.49-1.05-5.03-2-7.61-2.86c-5.31-1.81-10.77-3.26-16.33-4.4c-6.75-1.4-13.64-2.35-20.59-2.98c-2.28-0.21-4.56-0.37-6.84-0.49
		c-1.54-0.09-3.05-0.19-4.58-0.23c-3.89-0.16-7.77-0.23-11.63-0.23c-3.42,0-6.84,0.05-10.24,0.14c-3.37,0.12-6.72,0.26-10.05,0.42
		c-22.66,1.14-41.14,6.61-55.45,13.03c0,0,0,0.02-0.02,0.02c-11.38,5.12-20.15,10.87-26.34,15.52c-0.42,0.3-0.81,0.6-1.19,0.88
		c-1.65,1.28-3.07,2.44-4.3,3.49c-0.4,0.3-0.77,0.63-1.12,0.91c0,0,0,0.02-0.02,0.02c-1.58,1.37-2.77,2.42-3.54,3.07
		c-0.12,0.09-0.21,0.19-0.33,0.28c-0.12,0.09-0.23,0.19-0.35,0.3c-1.07,0.91-2.12,1.81-3.16,2.77c-1.05,0.91-2.07,1.86-3.07,2.84
		c-1.14,1.07-2.23,2.16-3.3,3.28c-5.42,5.54-10.28,11.56-14.22,18.24c-6.84,11.63-10.66,24.8-13.47,38.02
		c-1.75,8.24-2.72,16.82-3.19,25.71c-0.14,2.49-0.21,5-0.28,7.52c-0.05,2.44-0.07,4.91-0.07,7.4c0,5.63,0.12,11.38,0.33,17.17
		c0.09,2.89,0.21,5.79,0.33,8.73c0.07,1.49,0.12,2.98,0.19,4.47c0.58,13.31,1.23,26.92,1.26,40.67c0.02,10.35-0.02,20.71-0.07,31.06
		c-0.05,8.98-0.09,17.94-0.14,26.92c-0.09,17.22-0.19,34.44-0.19,51.63v2.89c0,2.56,0.05,5.28,0.19,8.07
		c0.28,5.61,0.93,11.45,2.42,16.75c0.19,0.67,0.4,1.33,0.61,1.95c0.65,1.93,1.42,3.79,2.33,5.49c0.37,0.67,0.77,1.33,1.23,1.95
		c0.47,0.61,0.95,1.19,1.47,1.72c0.26,0.28,0.54,0.56,0.81,0.79c1.12,1,2.35,1.86,3.68,2.56c2.35,1.21,4.98,1.91,7.7,2
		c1.19,0.05,2.4,0.07,3.63,0.12c8.68,0.28,18.61,0.58,27.29,0.58c1.82,0,3.58-0.02,5.26-0.05c1.65-0.02,3.23-0.07,4.72-0.14h0.07
		c4.4-0.19,7.61-1.14,9.96-3.44c0.26-0.21,0.47-0.47,0.7-0.72c4.68-5.49,5.54-17.4,5.51-41.32c0,0-0.07-0.65-0.19-1.98
		c-0.02-0.33-0.05-0.65-0.07-1.05c0-0.07-0.02-0.14-0.02-0.23c-0.05-0.72-0.12-1.58-0.19-2.58c0-0.35-0.02-0.74-0.05-1.12
		c-0.05-0.6-0.07-1.26-0.09-1.93c0-0.09-0.02-0.21-0.02-0.33c-0.02-0.49-0.05-1-0.07-1.54c0,0,0-0.02,0-0.05
		c0-3.56,2.89-6.52,6.49-6.52H656.7c3.58,0,6.49,2.91,6.49,6.49c0,0.02,0,0.02,0,0.02l0.05,27.81c0.21,2.72,0.47,5.24,0.77,7.49
		c0,0,0,0,0,0.02c0.33,2.26,0.7,4.28,1.16,6.12v0.02c0.23,0.91,0.49,1.77,0.77,2.58c0.28,0.81,0.58,1.61,0.91,2.33
		c0.35,0.72,0.7,1.37,1.09,2c0.4,0.63,0.84,1.19,1.28,1.75c0.21,0.28,0.47,0.54,0.72,0.79c0.49,0.49,1,0.93,1.56,1.35
		c0,0.02,0,0.02,0.02,0.02c0.26,0.19,0.51,0.37,0.79,0.54c0.28,0.19,0.58,0.33,0.88,0.49c0.14,0.09,0.3,0.16,0.44,0.23
		c0.47,0.23,0.95,0.44,1.44,0.65c0.19,0.07,0.37,0.12,0.56,0.19c0.54,0.19,1.09,0.35,1.68,0.51c0.14,0.05,0.3,0.09,0.47,0.12
		c0.74,0.19,1.51,0.35,2.33,0.47c0.02,0,0.07,0,0.09,0.02c0.49,0.07,0.98,0.14,1.51,0.19l1.37,0.12c0.37,0.05,0.74,0.07,1.12,0.09
		l1.37,0.07c2.33,0.09,4.89,0.05,7.75-0.07h0.58c0.35-0.02,0.77-0.02,1.23-0.02h1.12c1.7,0,3.75,0.02,5.63,0.02
		c1.21,0.02,2.37,0.02,3.33,0.02c0.67,0,1.26-0.02,1.68-0.02c6.35-0.14,7.52-0.12,9.35-0.07c0.12,0,0.26,0.02,0.4,0
		c0.3,0.02,0.65,0.02,1.05,0.02c1.19,0.02,2.84,0.05,5.61,0.05c0.86,0,1.7-0.02,2.54-0.09c0.3-0.02,0.63-0.07,0.93-0.12
		c0.6-0.09,1.21-0.23,1.81-0.42c0.88-0.28,1.77-0.67,2.58-1.23c0,0,0,0.02,0.02,0c0.56-0.4,1.09-0.84,1.61-1.35
		c4.47-4.54,7.54-15.33,7.33-40.74c-0.35-43.23-0.21-52.4-0.02-67.41c0-0.91,0.02-1.81,0.02-2.77c0.07-4.68,0.12-10.05,0.16-17.15
		c0.02-0.95,0.02-1.93,0.02-2.93c0.02-2.54,0.05-5.28,0.05-8.26c0-2.44,0.02-5.07,0.02-7.89c0.02-4.68,0.02-9.89,0.05-15.73v-7.91
		C740.42,486.59,740.42,483.96,740.4,481.31z M663.26,512.35c-0.02,19.06-0.05,41.28-0.07,59.45c0,3.58-2.91,6.47-6.49,6.47H525.58
		c-3.49,0-6.28-2.7-6.47-6.14c0-0.07,0-0.16-0.02-0.23c-0.09-4.37-0.21-8.77-0.35-13.17c-0.12-4.4-0.28-8.82-0.42-13.24
		c0-0.56-0.02-1.12-0.05-1.68c-0.16-5.58-0.3-11.15-0.37-16.71c-0.07-4.91-0.09-9.8-0.02-14.66c0.02-1.26,0.02-2.51,0.02-3.79
		c0-4.4-0.09-8.77-0.19-13.12c-0.05-2.26-0.12-4.51-0.14-6.79c-0.02-2-0.05-4-0.07-6c0-1.98,0.02-3.98,0.07-5.98
		c0-0.23,0-0.44,0.02-0.67c0.02-1.63,0.07-3.26,0.16-4.86c0.02-0.26,0.02-0.51,0.05-0.77c0.14-2.58,0.35-5.17,0.65-7.75
		c0.09-0.86,0.21-1.72,0.33-2.58c0.35-2.65,0.79-5.31,1.35-7.96c0.42-2,0.88-4,1.42-5.98c0.26-1,0.54-1.98,0.84-2.96
		c0.44-1.47,0.91-2.93,1.42-4.37c0.51-1.44,1.09-2.86,1.72-4.26c0.81-1.86,1.75-3.68,2.79-5.44c3.77-6.45,8.98-11.98,14.75-16.75
		c0,0,10.75-12.1,26.83-16.01c6.24-1.51,13.15-2.19,20.01-2.19c7.45,0,14.82,0.79,21.2,2.14c0.79,0.16,1.58,0.35,2.33,0.54
		c1.33,0.33,2.61,0.65,3.82,1.05c0.02,0,0.02,0,0.02,0c3.63,1.09,6.72,2.42,8.96,3.91c4.4,2.89,8.26,6.05,11.68,9.49
		c10.24,10.31,16.4,23.11,20.24,38.39C663.31,470.07,663.31,491.36,663.26,512.35z M721.81,497.13
		c-0.05,31.13-0.21,44.49-0.35,55.22c-0.16,14.66-0.3,24.34,0.05,67.11c0.12,14.08-0.88,21.48-1.7,25.18
		c-1.4-0.02-2.26-0.05-2.98-0.05c-0.98-0.05-1.79-0.05-3.02-0.05c-1.61,0-3.82,0.02-7.38,0.12h-1.21c-1.14,0-2.56,0-4.03-0.02
		c-1.7,0-3.44-0.02-4.93-0.02c-1.68,0-2.84,0.02-3.75,0.05c-1.51,0.07-2.91,0.12-4.14,0.12c-2.47,0-4.1-0.14-5.12-0.28
		c-0.4-1.54-0.95-4.51-1.42-10.08l-0.02-27.06c0-0.56,0-55.05,0.07-94.96c0.05-20.83,0.09-44.44-5.65-67.22
		c-6.72-26.76-19.36-45.47-39.77-58.89c-12.01-7.89-31.9-10.7-46.54-10.7c-8.8,0-17.01,0.93-24.41,2.72
		c-18.5,4.49-31.34,16.5-35.23,20.52c-7.59,6.42-13.64,13.45-18.01,20.87c-5.98,10.19-8.77,21.2-10.33,28.6
		c-3.51,16.47-3.16,32.25-2.84,47.49c0.12,5.65,0.23,11.01,0.16,16.43c-0.19,13.61,0.26,27.41,0.7,40.79
		c0.33,10.75,0.7,21.87,0.7,32.53c0.02,19.38,0.84,30.16,1.14,33.51c0,5.91-0.05,19.22-1.05,26.11c-1.95,0.05-4.14,0.07-6.56,0.07
		c-9.4,0-20.59-0.37-29.78-0.67c-2.93-6.38-2.96-18.61-2.96-22.71c-0.02-18.22,0.09-36.83,0.19-54.82
		c0.12-18.92,0.21-38.46,0.19-57.68c0-12.82-0.56-25.41-1.09-37.6c-1.12-25.62-2.19-49.79,2.14-70.18
		c3.05-14.31,6.54-24.34,11.33-32.48c4.47-7.61,11.15-15.12,20.38-22.92c0.4-0.35,0.91-0.77,1.49-1.28
		c22.04-19.24,48.75-29.76,79.42-31.3c7.07-0.35,13.4-0.54,19.36-0.54c16.47,0,30.6,1.35,42.81,4.17
		c12.22,2.79,22.5,7.05,31.32,12.87c23.11,15.17,36.97,36.18,44.98,68.08C721.9,429.77,721.85,464.02,721.81,497.13z"/>
	<path class="st2" d="M443.23,509.33c-0.02-13.75-0.67-27.36-1.26-40.67c0.56,13.31,1.21,26.94,1.23,40.7
		c0.02,10.33,0,20.69-0.05,31.04C443.21,530.04,443.26,519.68,443.23,509.33z M446.05,648.61c0.63,1.93,1.4,3.79,2.33,5.49
		C447.47,652.41,446.7,650.54,446.05,648.61z M451.89,658.57c1.12,1.02,2.35,1.88,3.68,2.56
		C454.24,660.43,453.01,659.57,451.89,658.57z M626.24,401.83c-2.23-1.49-5.33-2.82-8.96-3.91c3.65,1.14,6.7,2.47,8.96,3.93
		c4.37,2.89,8.26,6.05,11.68,9.47C634.5,407.88,630.64,404.71,626.24,401.83z M663.24,635.16l-0.05-27.81l0.02,27.81
		c0.21,2.72,0.47,5.21,0.79,7.49C663.7,640.4,663.45,637.89,663.24,635.16z M664.01,642.68c0.3,2.26,0.67,4.28,1.16,6.12
		C664.7,646.96,664.33,644.94,664.01,642.68z M693.32,663.25c-2.86,0.12-5.42,0.16-7.75,0.07c0.88,0.05,1.82,0.07,2.79,0.07
		c1.56,0,3.19-0.05,4.96-0.12c0.12-0.02,0.23-0.02,0.37-0.02H693.32z M706.89,663.25c-0.42,0-1,0.02-1.68,0.02h1.68
		c3.63-0.09,5.56-0.12,6.91-0.12c1,0,1.65,0.02,2.44,0.02C714.41,663.13,713.24,663.11,706.89,663.25z M723.29,663.25
		c-2.77,0-4.42-0.02-5.61-0.05c1.19,0.05,2.84,0.07,5.61,0.07c0.86,0,1.7-0.02,2.54-0.12C724.99,663.22,724.16,663.25,723.29,663.25
		z M731.18,661.39c0.56-0.37,1.09-0.81,1.61-1.35C732.28,660.55,731.74,660.99,731.18,661.39z M731.16,661.39
		c-0.81,0.56-1.7,0.95-2.58,1.23C729.46,662.36,730.32,661.97,731.16,661.39z"/>
</g>
</svg>
